G75*
%MOIN*%
%OFA0B0*%
%FSLAX25Y25*%
%IPPOS*%
%LPD*%
%AMOC8*
5,1,8,0,0,1.08239X$1,22.5*
%
%ADD10C,0.00000*%
%ADD11C,0.07400*%
%ADD12R,0.03937X0.04331*%
%ADD13R,0.05118X0.06102*%
%ADD14C,0.01000*%
D10*
X0001655Y0001500D02*
X0001655Y0076500D01*
X0051655Y0076500D01*
X0051655Y0001500D01*
X0001655Y0001500D01*
X0035405Y0011500D02*
X0035407Y0011658D01*
X0035413Y0011815D01*
X0035423Y0011973D01*
X0035437Y0012130D01*
X0035455Y0012286D01*
X0035476Y0012443D01*
X0035502Y0012598D01*
X0035532Y0012753D01*
X0035565Y0012907D01*
X0035603Y0013060D01*
X0035644Y0013213D01*
X0035689Y0013364D01*
X0035738Y0013514D01*
X0035791Y0013662D01*
X0035847Y0013810D01*
X0035908Y0013955D01*
X0035971Y0014100D01*
X0036039Y0014242D01*
X0036110Y0014383D01*
X0036184Y0014522D01*
X0036262Y0014659D01*
X0036344Y0014794D01*
X0036428Y0014927D01*
X0036517Y0015058D01*
X0036608Y0015186D01*
X0036703Y0015313D01*
X0036800Y0015436D01*
X0036901Y0015558D01*
X0037005Y0015676D01*
X0037112Y0015792D01*
X0037222Y0015905D01*
X0037334Y0016016D01*
X0037450Y0016123D01*
X0037568Y0016228D01*
X0037688Y0016330D01*
X0037811Y0016428D01*
X0037937Y0016524D01*
X0038065Y0016616D01*
X0038195Y0016705D01*
X0038327Y0016791D01*
X0038462Y0016873D01*
X0038599Y0016952D01*
X0038737Y0017027D01*
X0038877Y0017099D01*
X0039020Y0017167D01*
X0039163Y0017232D01*
X0039309Y0017293D01*
X0039456Y0017350D01*
X0039604Y0017404D01*
X0039754Y0017454D01*
X0039904Y0017500D01*
X0040056Y0017542D01*
X0040209Y0017581D01*
X0040363Y0017615D01*
X0040518Y0017646D01*
X0040673Y0017672D01*
X0040829Y0017695D01*
X0040986Y0017714D01*
X0041143Y0017729D01*
X0041300Y0017740D01*
X0041458Y0017747D01*
X0041616Y0017750D01*
X0041773Y0017749D01*
X0041931Y0017744D01*
X0042088Y0017735D01*
X0042246Y0017722D01*
X0042402Y0017705D01*
X0042559Y0017684D01*
X0042714Y0017660D01*
X0042869Y0017631D01*
X0043024Y0017598D01*
X0043177Y0017562D01*
X0043330Y0017521D01*
X0043481Y0017477D01*
X0043631Y0017429D01*
X0043780Y0017378D01*
X0043928Y0017322D01*
X0044074Y0017263D01*
X0044219Y0017200D01*
X0044362Y0017133D01*
X0044503Y0017063D01*
X0044642Y0016990D01*
X0044780Y0016913D01*
X0044916Y0016832D01*
X0045049Y0016748D01*
X0045180Y0016661D01*
X0045309Y0016570D01*
X0045436Y0016476D01*
X0045561Y0016379D01*
X0045682Y0016279D01*
X0045802Y0016176D01*
X0045918Y0016070D01*
X0046032Y0015961D01*
X0046144Y0015849D01*
X0046252Y0015735D01*
X0046357Y0015617D01*
X0046460Y0015497D01*
X0046559Y0015375D01*
X0046655Y0015250D01*
X0046748Y0015122D01*
X0046838Y0014993D01*
X0046924Y0014861D01*
X0047008Y0014727D01*
X0047087Y0014591D01*
X0047164Y0014453D01*
X0047236Y0014313D01*
X0047305Y0014171D01*
X0047371Y0014028D01*
X0047433Y0013883D01*
X0047491Y0013736D01*
X0047546Y0013588D01*
X0047597Y0013439D01*
X0047644Y0013288D01*
X0047687Y0013137D01*
X0047726Y0012984D01*
X0047762Y0012830D01*
X0047793Y0012676D01*
X0047821Y0012521D01*
X0047845Y0012365D01*
X0047865Y0012208D01*
X0047881Y0012051D01*
X0047893Y0011894D01*
X0047901Y0011737D01*
X0047905Y0011579D01*
X0047905Y0011421D01*
X0047901Y0011263D01*
X0047893Y0011106D01*
X0047881Y0010949D01*
X0047865Y0010792D01*
X0047845Y0010635D01*
X0047821Y0010479D01*
X0047793Y0010324D01*
X0047762Y0010170D01*
X0047726Y0010016D01*
X0047687Y0009863D01*
X0047644Y0009712D01*
X0047597Y0009561D01*
X0047546Y0009412D01*
X0047491Y0009264D01*
X0047433Y0009117D01*
X0047371Y0008972D01*
X0047305Y0008829D01*
X0047236Y0008687D01*
X0047164Y0008547D01*
X0047087Y0008409D01*
X0047008Y0008273D01*
X0046924Y0008139D01*
X0046838Y0008007D01*
X0046748Y0007878D01*
X0046655Y0007750D01*
X0046559Y0007625D01*
X0046460Y0007503D01*
X0046357Y0007383D01*
X0046252Y0007265D01*
X0046144Y0007151D01*
X0046032Y0007039D01*
X0045918Y0006930D01*
X0045802Y0006824D01*
X0045682Y0006721D01*
X0045561Y0006621D01*
X0045436Y0006524D01*
X0045309Y0006430D01*
X0045180Y0006339D01*
X0045049Y0006252D01*
X0044916Y0006168D01*
X0044780Y0006087D01*
X0044642Y0006010D01*
X0044503Y0005937D01*
X0044362Y0005867D01*
X0044219Y0005800D01*
X0044074Y0005737D01*
X0043928Y0005678D01*
X0043780Y0005622D01*
X0043631Y0005571D01*
X0043481Y0005523D01*
X0043330Y0005479D01*
X0043177Y0005438D01*
X0043024Y0005402D01*
X0042869Y0005369D01*
X0042714Y0005340D01*
X0042559Y0005316D01*
X0042402Y0005295D01*
X0042246Y0005278D01*
X0042088Y0005265D01*
X0041931Y0005256D01*
X0041773Y0005251D01*
X0041616Y0005250D01*
X0041458Y0005253D01*
X0041300Y0005260D01*
X0041143Y0005271D01*
X0040986Y0005286D01*
X0040829Y0005305D01*
X0040673Y0005328D01*
X0040518Y0005354D01*
X0040363Y0005385D01*
X0040209Y0005419D01*
X0040056Y0005458D01*
X0039904Y0005500D01*
X0039754Y0005546D01*
X0039604Y0005596D01*
X0039456Y0005650D01*
X0039309Y0005707D01*
X0039163Y0005768D01*
X0039020Y0005833D01*
X0038877Y0005901D01*
X0038737Y0005973D01*
X0038599Y0006048D01*
X0038462Y0006127D01*
X0038327Y0006209D01*
X0038195Y0006295D01*
X0038065Y0006384D01*
X0037937Y0006476D01*
X0037811Y0006572D01*
X0037688Y0006670D01*
X0037568Y0006772D01*
X0037450Y0006877D01*
X0037334Y0006984D01*
X0037222Y0007095D01*
X0037112Y0007208D01*
X0037005Y0007324D01*
X0036901Y0007442D01*
X0036800Y0007564D01*
X0036703Y0007687D01*
X0036608Y0007814D01*
X0036517Y0007942D01*
X0036428Y0008073D01*
X0036344Y0008206D01*
X0036262Y0008341D01*
X0036184Y0008478D01*
X0036110Y0008617D01*
X0036039Y0008758D01*
X0035971Y0008900D01*
X0035908Y0009045D01*
X0035847Y0009190D01*
X0035791Y0009338D01*
X0035738Y0009486D01*
X0035689Y0009636D01*
X0035644Y0009787D01*
X0035603Y0009940D01*
X0035565Y0010093D01*
X0035532Y0010247D01*
X0035502Y0010402D01*
X0035476Y0010557D01*
X0035455Y0010714D01*
X0035437Y0010870D01*
X0035423Y0011027D01*
X0035413Y0011185D01*
X0035407Y0011342D01*
X0035405Y0011500D01*
X0005405Y0066500D02*
X0005407Y0066658D01*
X0005413Y0066815D01*
X0005423Y0066973D01*
X0005437Y0067130D01*
X0005455Y0067286D01*
X0005476Y0067443D01*
X0005502Y0067598D01*
X0005532Y0067753D01*
X0005565Y0067907D01*
X0005603Y0068060D01*
X0005644Y0068213D01*
X0005689Y0068364D01*
X0005738Y0068514D01*
X0005791Y0068662D01*
X0005847Y0068810D01*
X0005908Y0068955D01*
X0005971Y0069100D01*
X0006039Y0069242D01*
X0006110Y0069383D01*
X0006184Y0069522D01*
X0006262Y0069659D01*
X0006344Y0069794D01*
X0006428Y0069927D01*
X0006517Y0070058D01*
X0006608Y0070186D01*
X0006703Y0070313D01*
X0006800Y0070436D01*
X0006901Y0070558D01*
X0007005Y0070676D01*
X0007112Y0070792D01*
X0007222Y0070905D01*
X0007334Y0071016D01*
X0007450Y0071123D01*
X0007568Y0071228D01*
X0007688Y0071330D01*
X0007811Y0071428D01*
X0007937Y0071524D01*
X0008065Y0071616D01*
X0008195Y0071705D01*
X0008327Y0071791D01*
X0008462Y0071873D01*
X0008599Y0071952D01*
X0008737Y0072027D01*
X0008877Y0072099D01*
X0009020Y0072167D01*
X0009163Y0072232D01*
X0009309Y0072293D01*
X0009456Y0072350D01*
X0009604Y0072404D01*
X0009754Y0072454D01*
X0009904Y0072500D01*
X0010056Y0072542D01*
X0010209Y0072581D01*
X0010363Y0072615D01*
X0010518Y0072646D01*
X0010673Y0072672D01*
X0010829Y0072695D01*
X0010986Y0072714D01*
X0011143Y0072729D01*
X0011300Y0072740D01*
X0011458Y0072747D01*
X0011616Y0072750D01*
X0011773Y0072749D01*
X0011931Y0072744D01*
X0012088Y0072735D01*
X0012246Y0072722D01*
X0012402Y0072705D01*
X0012559Y0072684D01*
X0012714Y0072660D01*
X0012869Y0072631D01*
X0013024Y0072598D01*
X0013177Y0072562D01*
X0013330Y0072521D01*
X0013481Y0072477D01*
X0013631Y0072429D01*
X0013780Y0072378D01*
X0013928Y0072322D01*
X0014074Y0072263D01*
X0014219Y0072200D01*
X0014362Y0072133D01*
X0014503Y0072063D01*
X0014642Y0071990D01*
X0014780Y0071913D01*
X0014916Y0071832D01*
X0015049Y0071748D01*
X0015180Y0071661D01*
X0015309Y0071570D01*
X0015436Y0071476D01*
X0015561Y0071379D01*
X0015682Y0071279D01*
X0015802Y0071176D01*
X0015918Y0071070D01*
X0016032Y0070961D01*
X0016144Y0070849D01*
X0016252Y0070735D01*
X0016357Y0070617D01*
X0016460Y0070497D01*
X0016559Y0070375D01*
X0016655Y0070250D01*
X0016748Y0070122D01*
X0016838Y0069993D01*
X0016924Y0069861D01*
X0017008Y0069727D01*
X0017087Y0069591D01*
X0017164Y0069453D01*
X0017236Y0069313D01*
X0017305Y0069171D01*
X0017371Y0069028D01*
X0017433Y0068883D01*
X0017491Y0068736D01*
X0017546Y0068588D01*
X0017597Y0068439D01*
X0017644Y0068288D01*
X0017687Y0068137D01*
X0017726Y0067984D01*
X0017762Y0067830D01*
X0017793Y0067676D01*
X0017821Y0067521D01*
X0017845Y0067365D01*
X0017865Y0067208D01*
X0017881Y0067051D01*
X0017893Y0066894D01*
X0017901Y0066737D01*
X0017905Y0066579D01*
X0017905Y0066421D01*
X0017901Y0066263D01*
X0017893Y0066106D01*
X0017881Y0065949D01*
X0017865Y0065792D01*
X0017845Y0065635D01*
X0017821Y0065479D01*
X0017793Y0065324D01*
X0017762Y0065170D01*
X0017726Y0065016D01*
X0017687Y0064863D01*
X0017644Y0064712D01*
X0017597Y0064561D01*
X0017546Y0064412D01*
X0017491Y0064264D01*
X0017433Y0064117D01*
X0017371Y0063972D01*
X0017305Y0063829D01*
X0017236Y0063687D01*
X0017164Y0063547D01*
X0017087Y0063409D01*
X0017008Y0063273D01*
X0016924Y0063139D01*
X0016838Y0063007D01*
X0016748Y0062878D01*
X0016655Y0062750D01*
X0016559Y0062625D01*
X0016460Y0062503D01*
X0016357Y0062383D01*
X0016252Y0062265D01*
X0016144Y0062151D01*
X0016032Y0062039D01*
X0015918Y0061930D01*
X0015802Y0061824D01*
X0015682Y0061721D01*
X0015561Y0061621D01*
X0015436Y0061524D01*
X0015309Y0061430D01*
X0015180Y0061339D01*
X0015049Y0061252D01*
X0014916Y0061168D01*
X0014780Y0061087D01*
X0014642Y0061010D01*
X0014503Y0060937D01*
X0014362Y0060867D01*
X0014219Y0060800D01*
X0014074Y0060737D01*
X0013928Y0060678D01*
X0013780Y0060622D01*
X0013631Y0060571D01*
X0013481Y0060523D01*
X0013330Y0060479D01*
X0013177Y0060438D01*
X0013024Y0060402D01*
X0012869Y0060369D01*
X0012714Y0060340D01*
X0012559Y0060316D01*
X0012402Y0060295D01*
X0012246Y0060278D01*
X0012088Y0060265D01*
X0011931Y0060256D01*
X0011773Y0060251D01*
X0011616Y0060250D01*
X0011458Y0060253D01*
X0011300Y0060260D01*
X0011143Y0060271D01*
X0010986Y0060286D01*
X0010829Y0060305D01*
X0010673Y0060328D01*
X0010518Y0060354D01*
X0010363Y0060385D01*
X0010209Y0060419D01*
X0010056Y0060458D01*
X0009904Y0060500D01*
X0009754Y0060546D01*
X0009604Y0060596D01*
X0009456Y0060650D01*
X0009309Y0060707D01*
X0009163Y0060768D01*
X0009020Y0060833D01*
X0008877Y0060901D01*
X0008737Y0060973D01*
X0008599Y0061048D01*
X0008462Y0061127D01*
X0008327Y0061209D01*
X0008195Y0061295D01*
X0008065Y0061384D01*
X0007937Y0061476D01*
X0007811Y0061572D01*
X0007688Y0061670D01*
X0007568Y0061772D01*
X0007450Y0061877D01*
X0007334Y0061984D01*
X0007222Y0062095D01*
X0007112Y0062208D01*
X0007005Y0062324D01*
X0006901Y0062442D01*
X0006800Y0062564D01*
X0006703Y0062687D01*
X0006608Y0062814D01*
X0006517Y0062942D01*
X0006428Y0063073D01*
X0006344Y0063206D01*
X0006262Y0063341D01*
X0006184Y0063478D01*
X0006110Y0063617D01*
X0006039Y0063758D01*
X0005971Y0063900D01*
X0005908Y0064045D01*
X0005847Y0064190D01*
X0005791Y0064338D01*
X0005738Y0064486D01*
X0005689Y0064636D01*
X0005644Y0064787D01*
X0005603Y0064940D01*
X0005565Y0065093D01*
X0005532Y0065247D01*
X0005502Y0065402D01*
X0005476Y0065557D01*
X0005455Y0065714D01*
X0005437Y0065870D01*
X0005423Y0066027D01*
X0005413Y0066185D01*
X0005407Y0066342D01*
X0005405Y0066500D01*
D11*
X0026655Y0026500D03*
X0026655Y0016500D03*
X0026655Y0006500D03*
D12*
X0037309Y0028500D03*
X0044002Y0028500D03*
D13*
X0045013Y0037850D03*
X0027297Y0037850D03*
X0027297Y0069150D03*
X0045013Y0069150D03*
D14*
X0045155Y0069000D02*
X0045013Y0068858D01*
X0045013Y0037850D01*
X0044002Y0036839D01*
X0044002Y0028500D01*
X0044155Y0028346D01*
X0044155Y0025000D01*
X0042655Y0023500D01*
X0039655Y0023500D01*
X0031655Y0015500D01*
X0031655Y0011500D01*
X0026655Y0006500D01*
X0023508Y0003000D02*
X0003155Y0003000D01*
X0003155Y0075000D01*
X0050155Y0075000D01*
X0050155Y0003000D01*
X0029802Y0003000D01*
X0030640Y0003838D01*
X0031355Y0005565D01*
X0031355Y0007435D01*
X0030874Y0008597D01*
X0033155Y0010879D01*
X0033155Y0014879D01*
X0040276Y0022000D01*
X0043276Y0022000D01*
X0044776Y0023500D01*
X0045655Y0024379D01*
X0045655Y0025335D01*
X0046384Y0025335D01*
X0046970Y0025920D01*
X0046970Y0031080D01*
X0046384Y0031665D01*
X0045502Y0031665D01*
X0045502Y0033799D01*
X0047987Y0033799D01*
X0048572Y0034385D01*
X0048572Y0041316D01*
X0047987Y0041902D01*
X0046513Y0041902D01*
X0046513Y0065098D01*
X0047987Y0065098D01*
X0048572Y0065684D01*
X0048572Y0072615D01*
X0047987Y0073201D01*
X0042040Y0073201D01*
X0041454Y0072615D01*
X0041454Y0065684D01*
X0042040Y0065098D01*
X0043513Y0065098D01*
X0043513Y0041902D01*
X0042040Y0041902D01*
X0041454Y0041316D01*
X0041454Y0034385D01*
X0042040Y0033799D01*
X0042502Y0033799D01*
X0042502Y0031665D01*
X0041619Y0031665D01*
X0041033Y0031080D01*
X0041033Y0025920D01*
X0041619Y0025335D01*
X0042368Y0025335D01*
X0042034Y0025000D01*
X0039034Y0025000D01*
X0031355Y0017321D01*
X0031355Y0017435D01*
X0030874Y0018597D01*
X0033276Y0021000D01*
X0033276Y0021000D01*
X0034155Y0021879D01*
X0034155Y0026379D01*
X0034340Y0026564D01*
X0034340Y0025920D01*
X0034926Y0025335D01*
X0039691Y0025335D01*
X0040277Y0025920D01*
X0040277Y0031080D01*
X0039691Y0031665D01*
X0034926Y0031665D01*
X0034340Y0031080D01*
X0034340Y0030000D01*
X0033534Y0030000D01*
X0032655Y0029121D01*
X0031610Y0028077D01*
X0031474Y0028496D01*
X0031102Y0029225D01*
X0030621Y0029888D01*
X0030043Y0030466D01*
X0029380Y0030947D01*
X0028651Y0031319D01*
X0027873Y0031572D01*
X0027155Y0031686D01*
X0027155Y0027000D01*
X0026155Y0027000D01*
X0026155Y0026000D01*
X0021469Y0026000D01*
X0021583Y0025282D01*
X0021836Y0024504D01*
X0022208Y0023775D01*
X0022689Y0023112D01*
X0023267Y0022534D01*
X0023930Y0022053D01*
X0024659Y0021681D01*
X0025437Y0021428D01*
X0026155Y0021314D01*
X0026155Y0026000D01*
X0027155Y0026000D01*
X0027155Y0021314D01*
X0027873Y0021428D01*
X0028651Y0021681D01*
X0029380Y0022053D01*
X0030043Y0022534D01*
X0030621Y0023112D01*
X0031102Y0023775D01*
X0031155Y0023878D01*
X0031155Y0023121D01*
X0028752Y0020719D01*
X0027590Y0021200D01*
X0025720Y0021200D01*
X0023993Y0020484D01*
X0022671Y0019162D01*
X0021955Y0017435D01*
X0021955Y0015565D01*
X0022671Y0013838D01*
X0023993Y0012516D01*
X0025720Y0011800D01*
X0027590Y0011800D01*
X0029317Y0012516D01*
X0030155Y0013353D01*
X0030155Y0012121D01*
X0028752Y0010719D01*
X0027590Y0011200D01*
X0025720Y0011200D01*
X0023993Y0010484D01*
X0022671Y0009162D01*
X0021955Y0007435D01*
X0021955Y0005565D01*
X0022671Y0003838D01*
X0023508Y0003000D01*
X0023011Y0003497D02*
X0003155Y0003497D01*
X0003155Y0004496D02*
X0022398Y0004496D01*
X0021984Y0005494D02*
X0003155Y0005494D01*
X0003155Y0006493D02*
X0021955Y0006493D01*
X0021978Y0007491D02*
X0003155Y0007491D01*
X0003155Y0008490D02*
X0022392Y0008490D01*
X0022996Y0009488D02*
X0003155Y0009488D01*
X0003155Y0010487D02*
X0023998Y0010487D01*
X0024070Y0012484D02*
X0003155Y0012484D01*
X0003155Y0013482D02*
X0023026Y0013482D01*
X0022404Y0014481D02*
X0003155Y0014481D01*
X0003155Y0015479D02*
X0021991Y0015479D01*
X0021955Y0016478D02*
X0003155Y0016478D01*
X0003155Y0017476D02*
X0021972Y0017476D01*
X0022386Y0018475D02*
X0003155Y0018475D01*
X0003155Y0019473D02*
X0022981Y0019473D01*
X0023980Y0020472D02*
X0003155Y0020472D01*
X0003155Y0021470D02*
X0025308Y0021470D01*
X0026155Y0021470D02*
X0027155Y0021470D01*
X0027155Y0022469D02*
X0026155Y0022469D01*
X0026155Y0023467D02*
X0027155Y0023467D01*
X0027155Y0024466D02*
X0026155Y0024466D01*
X0026155Y0025464D02*
X0027155Y0025464D01*
X0026155Y0026463D02*
X0003155Y0026463D01*
X0003155Y0025464D02*
X0021554Y0025464D01*
X0021855Y0024466D02*
X0003155Y0024466D01*
X0003155Y0023467D02*
X0022431Y0023467D01*
X0023357Y0022469D02*
X0003155Y0022469D01*
X0003155Y0027461D02*
X0021542Y0027461D01*
X0021583Y0027718D02*
X0021469Y0027000D01*
X0026155Y0027000D01*
X0026155Y0031686D01*
X0025437Y0031572D01*
X0024659Y0031319D01*
X0023930Y0030947D01*
X0023267Y0030466D01*
X0022689Y0029888D01*
X0022208Y0029225D01*
X0021836Y0028496D01*
X0021583Y0027718D01*
X0021824Y0028460D02*
X0003155Y0028460D01*
X0003155Y0029458D02*
X0022377Y0029458D01*
X0023258Y0030457D02*
X0003155Y0030457D01*
X0003155Y0031455D02*
X0025078Y0031455D01*
X0026155Y0031455D02*
X0027155Y0031455D01*
X0027155Y0030457D02*
X0026155Y0030457D01*
X0026155Y0029458D02*
X0027155Y0029458D01*
X0027155Y0028460D02*
X0026155Y0028460D01*
X0026155Y0027461D02*
X0027155Y0027461D01*
X0028232Y0031455D02*
X0034716Y0031455D01*
X0034340Y0030457D02*
X0030052Y0030457D01*
X0030933Y0029458D02*
X0032992Y0029458D01*
X0031994Y0028460D02*
X0031486Y0028460D01*
X0032655Y0027000D02*
X0034155Y0028500D01*
X0037309Y0028500D01*
X0039821Y0025464D02*
X0041489Y0025464D01*
X0041033Y0026463D02*
X0040277Y0026463D01*
X0040277Y0027461D02*
X0041033Y0027461D01*
X0041033Y0028460D02*
X0040277Y0028460D01*
X0040277Y0029458D02*
X0041033Y0029458D01*
X0041033Y0030457D02*
X0040277Y0030457D01*
X0039901Y0031455D02*
X0041409Y0031455D01*
X0042502Y0032454D02*
X0003155Y0032454D01*
X0003155Y0033452D02*
X0024071Y0033452D01*
X0024159Y0033401D02*
X0024540Y0033299D01*
X0026797Y0033299D01*
X0026797Y0037350D01*
X0027797Y0037350D01*
X0027797Y0033299D01*
X0030053Y0033299D01*
X0030435Y0033401D01*
X0030777Y0033599D01*
X0031056Y0033878D01*
X0031254Y0034220D01*
X0031356Y0034602D01*
X0031356Y0037350D01*
X0027797Y0037350D01*
X0027797Y0038350D01*
X0031356Y0038350D01*
X0031356Y0041099D01*
X0031254Y0041481D01*
X0031056Y0041823D01*
X0030777Y0042102D01*
X0030435Y0042299D01*
X0030053Y0042402D01*
X0027797Y0042402D01*
X0027797Y0038350D01*
X0026797Y0038350D01*
X0026797Y0037350D01*
X0023238Y0037350D01*
X0023238Y0034602D01*
X0023340Y0034220D01*
X0023537Y0033878D01*
X0023817Y0033599D01*
X0024159Y0033401D01*
X0023278Y0034451D02*
X0003155Y0034451D01*
X0003155Y0035449D02*
X0023238Y0035449D01*
X0023238Y0036448D02*
X0003155Y0036448D01*
X0003155Y0037446D02*
X0026797Y0037446D01*
X0027297Y0037850D02*
X0027297Y0069358D01*
X0027155Y0069500D01*
X0023738Y0072615D02*
X0024324Y0073201D01*
X0030270Y0073201D01*
X0030856Y0072615D01*
X0030856Y0065684D01*
X0030270Y0065098D01*
X0024324Y0065098D01*
X0023738Y0065684D01*
X0023738Y0072615D01*
X0023738Y0072394D02*
X0016721Y0072394D01*
X0016045Y0073070D02*
X0013197Y0074250D01*
X0010113Y0074250D01*
X0007265Y0073070D01*
X0005085Y0070890D01*
X0003905Y0068042D01*
X0003905Y0064958D01*
X0005085Y0062110D01*
X0007265Y0059930D01*
X0010113Y0058750D01*
X0013197Y0058750D01*
X0016045Y0059930D01*
X0018225Y0062110D01*
X0019405Y0064958D01*
X0019405Y0068042D01*
X0018225Y0070890D01*
X0016045Y0073070D01*
X0015266Y0073393D02*
X0050155Y0073393D01*
X0050155Y0074391D02*
X0003155Y0074391D01*
X0003155Y0073393D02*
X0008044Y0073393D01*
X0006589Y0072394D02*
X0003155Y0072394D01*
X0003155Y0071396D02*
X0005591Y0071396D01*
X0004881Y0070397D02*
X0003155Y0070397D01*
X0003155Y0069399D02*
X0004467Y0069399D01*
X0004054Y0068400D02*
X0003155Y0068400D01*
X0003155Y0067402D02*
X0003905Y0067402D01*
X0003905Y0066403D02*
X0003155Y0066403D01*
X0003155Y0065405D02*
X0003905Y0065405D01*
X0004134Y0064406D02*
X0003155Y0064406D01*
X0003155Y0063408D02*
X0004547Y0063408D01*
X0004961Y0062409D02*
X0003155Y0062409D01*
X0003155Y0061411D02*
X0005784Y0061411D01*
X0006783Y0060412D02*
X0003155Y0060412D01*
X0003155Y0059414D02*
X0008511Y0059414D01*
X0003155Y0058415D02*
X0043513Y0058415D01*
X0043513Y0057417D02*
X0003155Y0057417D01*
X0003155Y0056418D02*
X0043513Y0056418D01*
X0043513Y0055420D02*
X0003155Y0055420D01*
X0003155Y0054421D02*
X0043513Y0054421D01*
X0043513Y0053423D02*
X0003155Y0053423D01*
X0003155Y0052424D02*
X0043513Y0052424D01*
X0043513Y0051426D02*
X0003155Y0051426D01*
X0003155Y0050427D02*
X0043513Y0050427D01*
X0043513Y0049429D02*
X0003155Y0049429D01*
X0003155Y0048430D02*
X0043513Y0048430D01*
X0043513Y0047432D02*
X0003155Y0047432D01*
X0003155Y0046433D02*
X0043513Y0046433D01*
X0043513Y0045434D02*
X0003155Y0045434D01*
X0003155Y0044436D02*
X0043513Y0044436D01*
X0043513Y0043437D02*
X0003155Y0043437D01*
X0003155Y0042439D02*
X0043513Y0042439D01*
X0041579Y0041440D02*
X0031264Y0041440D01*
X0031356Y0040442D02*
X0041454Y0040442D01*
X0041454Y0039443D02*
X0031356Y0039443D01*
X0031356Y0038445D02*
X0041454Y0038445D01*
X0041454Y0037446D02*
X0027797Y0037446D01*
X0027797Y0038445D02*
X0026797Y0038445D01*
X0026797Y0038350D02*
X0026797Y0042402D01*
X0024540Y0042402D01*
X0024159Y0042299D01*
X0023817Y0042102D01*
X0023537Y0041823D01*
X0023340Y0041481D01*
X0023238Y0041099D01*
X0023238Y0038350D01*
X0026797Y0038350D01*
X0026797Y0039443D02*
X0027797Y0039443D01*
X0027797Y0040442D02*
X0026797Y0040442D01*
X0026797Y0041440D02*
X0027797Y0041440D01*
X0027797Y0036448D02*
X0026797Y0036448D01*
X0026797Y0035449D02*
X0027797Y0035449D01*
X0027797Y0034451D02*
X0026797Y0034451D01*
X0026797Y0033452D02*
X0027797Y0033452D01*
X0030523Y0033452D02*
X0042502Y0033452D01*
X0041454Y0034451D02*
X0031315Y0034451D01*
X0031356Y0035449D02*
X0041454Y0035449D01*
X0041454Y0036448D02*
X0031356Y0036448D01*
X0032655Y0027000D02*
X0032655Y0022500D01*
X0026655Y0016500D01*
X0029240Y0012484D02*
X0030155Y0012484D01*
X0029519Y0011485D02*
X0003155Y0011485D01*
X0003155Y0038445D02*
X0023238Y0038445D01*
X0023238Y0039443D02*
X0003155Y0039443D01*
X0003155Y0040442D02*
X0023238Y0040442D01*
X0023329Y0041440D02*
X0003155Y0041440D01*
X0014799Y0059414D02*
X0043513Y0059414D01*
X0043513Y0060412D02*
X0016527Y0060412D01*
X0017526Y0061411D02*
X0043513Y0061411D01*
X0043513Y0062409D02*
X0018349Y0062409D01*
X0018763Y0063408D02*
X0043513Y0063408D01*
X0043513Y0064406D02*
X0019176Y0064406D01*
X0019405Y0065405D02*
X0024017Y0065405D01*
X0023738Y0066403D02*
X0019405Y0066403D01*
X0019405Y0067402D02*
X0023738Y0067402D01*
X0023738Y0068400D02*
X0019256Y0068400D01*
X0018843Y0069399D02*
X0023738Y0069399D01*
X0023738Y0070397D02*
X0018429Y0070397D01*
X0017719Y0071396D02*
X0023738Y0071396D01*
X0030576Y0065405D02*
X0041734Y0065405D01*
X0041454Y0066403D02*
X0030856Y0066403D01*
X0030856Y0067402D02*
X0041454Y0067402D01*
X0041454Y0068400D02*
X0030856Y0068400D01*
X0030856Y0069399D02*
X0041454Y0069399D01*
X0041454Y0070397D02*
X0030856Y0070397D01*
X0030856Y0071396D02*
X0041454Y0071396D01*
X0041454Y0072394D02*
X0030856Y0072394D01*
X0046513Y0064406D02*
X0050155Y0064406D01*
X0050155Y0063408D02*
X0046513Y0063408D01*
X0046513Y0062409D02*
X0050155Y0062409D01*
X0050155Y0061411D02*
X0046513Y0061411D01*
X0046513Y0060412D02*
X0050155Y0060412D01*
X0050155Y0059414D02*
X0046513Y0059414D01*
X0046513Y0058415D02*
X0050155Y0058415D01*
X0050155Y0057417D02*
X0046513Y0057417D01*
X0046513Y0056418D02*
X0050155Y0056418D01*
X0050155Y0055420D02*
X0046513Y0055420D01*
X0046513Y0054421D02*
X0050155Y0054421D01*
X0050155Y0053423D02*
X0046513Y0053423D01*
X0046513Y0052424D02*
X0050155Y0052424D01*
X0050155Y0051426D02*
X0046513Y0051426D01*
X0046513Y0050427D02*
X0050155Y0050427D01*
X0050155Y0049429D02*
X0046513Y0049429D01*
X0046513Y0048430D02*
X0050155Y0048430D01*
X0050155Y0047432D02*
X0046513Y0047432D01*
X0046513Y0046433D02*
X0050155Y0046433D01*
X0050155Y0045434D02*
X0046513Y0045434D01*
X0046513Y0044436D02*
X0050155Y0044436D01*
X0050155Y0043437D02*
X0046513Y0043437D01*
X0046513Y0042439D02*
X0050155Y0042439D01*
X0050155Y0041440D02*
X0048448Y0041440D01*
X0048572Y0040442D02*
X0050155Y0040442D01*
X0050155Y0039443D02*
X0048572Y0039443D01*
X0048572Y0038445D02*
X0050155Y0038445D01*
X0050155Y0037446D02*
X0048572Y0037446D01*
X0048572Y0036448D02*
X0050155Y0036448D01*
X0050155Y0035449D02*
X0048572Y0035449D01*
X0048572Y0034451D02*
X0050155Y0034451D01*
X0050155Y0033452D02*
X0045502Y0033452D01*
X0045502Y0032454D02*
X0050155Y0032454D01*
X0050155Y0031455D02*
X0046594Y0031455D01*
X0046970Y0030457D02*
X0050155Y0030457D01*
X0050155Y0029458D02*
X0046970Y0029458D01*
X0046970Y0028460D02*
X0050155Y0028460D01*
X0050155Y0027461D02*
X0046970Y0027461D01*
X0046970Y0026463D02*
X0050155Y0026463D01*
X0050155Y0025464D02*
X0046514Y0025464D01*
X0045655Y0024466D02*
X0050155Y0024466D01*
X0050155Y0023467D02*
X0044744Y0023467D01*
X0043745Y0022469D02*
X0050155Y0022469D01*
X0050155Y0021470D02*
X0039747Y0021470D01*
X0038748Y0020472D02*
X0050155Y0020472D01*
X0050155Y0019473D02*
X0037750Y0019473D01*
X0038242Y0018475D02*
X0036751Y0018475D01*
X0037265Y0018070D02*
X0035085Y0015890D01*
X0033905Y0013042D01*
X0033905Y0009958D01*
X0035085Y0007110D01*
X0037265Y0004930D01*
X0040113Y0003750D01*
X0043197Y0003750D01*
X0046045Y0004930D01*
X0048225Y0007110D01*
X0049405Y0009958D01*
X0049405Y0013042D01*
X0048225Y0015890D01*
X0046045Y0018070D01*
X0043197Y0019250D01*
X0040113Y0019250D01*
X0037265Y0018070D01*
X0036671Y0017476D02*
X0035753Y0017476D01*
X0035673Y0016478D02*
X0034754Y0016478D01*
X0034915Y0015479D02*
X0033756Y0015479D01*
X0033155Y0014481D02*
X0034501Y0014481D01*
X0034088Y0013482D02*
X0033155Y0013482D01*
X0033155Y0012484D02*
X0033905Y0012484D01*
X0033905Y0011485D02*
X0033155Y0011485D01*
X0032763Y0010487D02*
X0033905Y0010487D01*
X0034100Y0009488D02*
X0031764Y0009488D01*
X0030918Y0008490D02*
X0034513Y0008490D01*
X0034927Y0007491D02*
X0031332Y0007491D01*
X0031355Y0006493D02*
X0035702Y0006493D01*
X0036701Y0005494D02*
X0031326Y0005494D01*
X0030912Y0004496D02*
X0038314Y0004496D01*
X0044997Y0004496D02*
X0050155Y0004496D01*
X0050155Y0003497D02*
X0030299Y0003497D01*
X0031338Y0017476D02*
X0031510Y0017476D01*
X0030924Y0018475D02*
X0032508Y0018475D01*
X0031750Y0019473D02*
X0033507Y0019473D01*
X0032748Y0020472D02*
X0034505Y0020472D01*
X0033747Y0021470D02*
X0035504Y0021470D01*
X0036502Y0022469D02*
X0034155Y0022469D01*
X0034155Y0023467D02*
X0037501Y0023467D01*
X0038500Y0024466D02*
X0034155Y0024466D01*
X0034155Y0025464D02*
X0034796Y0025464D01*
X0034340Y0026463D02*
X0034239Y0026463D01*
X0031155Y0023467D02*
X0030879Y0023467D01*
X0030502Y0022469D02*
X0029953Y0022469D01*
X0029504Y0021470D02*
X0028003Y0021470D01*
X0045068Y0018475D02*
X0050155Y0018475D01*
X0050155Y0017476D02*
X0046639Y0017476D01*
X0047638Y0016478D02*
X0050155Y0016478D01*
X0050155Y0015479D02*
X0048395Y0015479D01*
X0048809Y0014481D02*
X0050155Y0014481D01*
X0050155Y0013482D02*
X0049223Y0013482D01*
X0049405Y0012484D02*
X0050155Y0012484D01*
X0050155Y0011485D02*
X0049405Y0011485D01*
X0049405Y0010487D02*
X0050155Y0010487D01*
X0050155Y0009488D02*
X0049210Y0009488D01*
X0048797Y0008490D02*
X0050155Y0008490D01*
X0050155Y0007491D02*
X0048383Y0007491D01*
X0047608Y0006493D02*
X0050155Y0006493D01*
X0050155Y0005494D02*
X0046609Y0005494D01*
X0048293Y0065405D02*
X0050155Y0065405D01*
X0050155Y0066403D02*
X0048572Y0066403D01*
X0048572Y0067402D02*
X0050155Y0067402D01*
X0050155Y0068400D02*
X0048572Y0068400D01*
X0048572Y0069399D02*
X0050155Y0069399D01*
X0050155Y0070397D02*
X0048572Y0070397D01*
X0048572Y0071396D02*
X0050155Y0071396D01*
X0050155Y0072394D02*
X0048572Y0072394D01*
M02*
