G75*
%MOIN*%
%OFA0B0*%
%FSLAX25Y25*%
%IPPOS*%
%LPD*%
%AMOC8*
5,1,8,0,0,1.08239X$1,22.5*
%
%ADD10C,0.07400*%
%ADD11C,0.01000*%
D10*
X0026655Y0006500D03*
X0026655Y0016500D03*
X0026655Y0026500D03*
D11*
X0022867Y0003500D02*
X0003655Y0003500D01*
X0003655Y0064255D01*
X0004661Y0061827D01*
X0006982Y0059506D01*
X0010014Y0058250D01*
X0013296Y0058250D01*
X0016328Y0059506D01*
X0018649Y0061827D01*
X0019905Y0064859D01*
X0019905Y0068141D01*
X0018649Y0071173D01*
X0016328Y0073494D01*
X0013900Y0074500D01*
X0049655Y0074500D01*
X0049655Y0013745D01*
X0048649Y0016173D01*
X0046328Y0018494D01*
X0043296Y0019750D01*
X0040014Y0019750D01*
X0036982Y0018494D01*
X0034661Y0016173D01*
X0033405Y0013141D01*
X0033405Y0009859D01*
X0034661Y0006827D01*
X0036982Y0004506D01*
X0039411Y0003500D01*
X0030443Y0003500D01*
X0030724Y0003781D01*
X0031455Y0005545D01*
X0031455Y0007455D01*
X0030724Y0009219D01*
X0029374Y0010569D01*
X0027610Y0011300D01*
X0025700Y0011300D01*
X0023936Y0010569D01*
X0022586Y0009219D01*
X0021855Y0007455D01*
X0021855Y0005545D01*
X0022586Y0003781D01*
X0022867Y0003500D01*
X0022290Y0004496D02*
X0003655Y0004496D01*
X0003655Y0005494D02*
X0021876Y0005494D01*
X0021855Y0006493D02*
X0003655Y0006493D01*
X0003655Y0007491D02*
X0021870Y0007491D01*
X0022284Y0008490D02*
X0003655Y0008490D01*
X0003655Y0009488D02*
X0022855Y0009488D01*
X0023853Y0010487D02*
X0003655Y0010487D01*
X0003655Y0011485D02*
X0033405Y0011485D01*
X0033405Y0010487D02*
X0029457Y0010487D01*
X0030455Y0009488D02*
X0033559Y0009488D01*
X0033972Y0008490D02*
X0031026Y0008490D01*
X0031440Y0007491D02*
X0034386Y0007491D01*
X0034995Y0006493D02*
X0031455Y0006493D01*
X0031434Y0005494D02*
X0035994Y0005494D01*
X0037007Y0004496D02*
X0031020Y0004496D01*
X0027610Y0011700D02*
X0025700Y0011700D01*
X0023936Y0012431D01*
X0022586Y0013781D01*
X0021855Y0015545D01*
X0021855Y0017455D01*
X0022586Y0019219D01*
X0023936Y0020569D01*
X0025700Y0021300D01*
X0027610Y0021300D01*
X0029374Y0020569D01*
X0030724Y0019219D01*
X0031455Y0017455D01*
X0031455Y0015545D01*
X0030724Y0013781D01*
X0029374Y0012431D01*
X0027610Y0011700D01*
X0029427Y0012484D02*
X0033405Y0012484D01*
X0033546Y0013482D02*
X0030425Y0013482D01*
X0031014Y0014481D02*
X0033960Y0014481D01*
X0034374Y0015479D02*
X0031428Y0015479D01*
X0031455Y0016478D02*
X0034965Y0016478D01*
X0035964Y0017476D02*
X0031446Y0017476D01*
X0031033Y0018475D02*
X0036963Y0018475D01*
X0039346Y0019473D02*
X0030470Y0019473D01*
X0029472Y0020472D02*
X0049655Y0020472D01*
X0049655Y0021470D02*
X0028003Y0021470D01*
X0027873Y0021428D02*
X0028651Y0021681D01*
X0029380Y0022053D01*
X0030043Y0022534D01*
X0030621Y0023112D01*
X0031102Y0023775D01*
X0031474Y0024504D01*
X0031727Y0025282D01*
X0031841Y0026000D01*
X0027155Y0026000D01*
X0027155Y0021314D01*
X0027873Y0021428D01*
X0027155Y0021470D02*
X0026155Y0021470D01*
X0026155Y0021314D02*
X0026155Y0026000D01*
X0021469Y0026000D01*
X0021583Y0025282D01*
X0021836Y0024504D01*
X0022208Y0023775D01*
X0022689Y0023112D01*
X0023267Y0022534D01*
X0023930Y0022053D01*
X0024659Y0021681D01*
X0025437Y0021428D01*
X0026155Y0021314D01*
X0025308Y0021470D02*
X0003655Y0021470D01*
X0003655Y0020472D02*
X0023839Y0020472D01*
X0022840Y0019473D02*
X0003655Y0019473D01*
X0003655Y0018475D02*
X0022278Y0018475D01*
X0021864Y0017476D02*
X0003655Y0017476D01*
X0003655Y0016478D02*
X0021855Y0016478D01*
X0021882Y0015479D02*
X0003655Y0015479D01*
X0003655Y0014481D02*
X0022296Y0014481D01*
X0022885Y0013482D02*
X0003655Y0013482D01*
X0003655Y0012484D02*
X0023883Y0012484D01*
X0023357Y0022469D02*
X0003655Y0022469D01*
X0003655Y0023467D02*
X0022431Y0023467D01*
X0021855Y0024466D02*
X0003655Y0024466D01*
X0003655Y0025464D02*
X0021554Y0025464D01*
X0021469Y0027000D02*
X0026155Y0027000D01*
X0026155Y0026000D01*
X0027155Y0026000D01*
X0027155Y0027000D01*
X0026155Y0027000D01*
X0026155Y0031686D01*
X0025437Y0031572D01*
X0024659Y0031319D01*
X0023930Y0030947D01*
X0023267Y0030466D01*
X0022689Y0029888D01*
X0022208Y0029225D01*
X0021836Y0028496D01*
X0021583Y0027718D01*
X0021469Y0027000D01*
X0021542Y0027461D02*
X0003655Y0027461D01*
X0003655Y0028460D02*
X0021824Y0028460D01*
X0022377Y0029458D02*
X0003655Y0029458D01*
X0003655Y0030457D02*
X0023258Y0030457D01*
X0025078Y0031455D02*
X0003655Y0031455D01*
X0003655Y0032454D02*
X0049655Y0032454D01*
X0049655Y0033452D02*
X0003655Y0033452D01*
X0003655Y0034451D02*
X0049655Y0034451D01*
X0049655Y0035449D02*
X0003655Y0035449D01*
X0003655Y0036448D02*
X0049655Y0036448D01*
X0049655Y0037446D02*
X0003655Y0037446D01*
X0003655Y0038445D02*
X0049655Y0038445D01*
X0049655Y0039443D02*
X0003655Y0039443D01*
X0003655Y0040442D02*
X0049655Y0040442D01*
X0049655Y0041440D02*
X0003655Y0041440D01*
X0003655Y0042439D02*
X0049655Y0042439D01*
X0049655Y0043437D02*
X0003655Y0043437D01*
X0003655Y0044436D02*
X0049655Y0044436D01*
X0049655Y0045434D02*
X0003655Y0045434D01*
X0003655Y0046433D02*
X0049655Y0046433D01*
X0049655Y0047432D02*
X0003655Y0047432D01*
X0003655Y0048430D02*
X0049655Y0048430D01*
X0049655Y0049429D02*
X0003655Y0049429D01*
X0003655Y0050427D02*
X0049655Y0050427D01*
X0049655Y0051426D02*
X0003655Y0051426D01*
X0003655Y0052424D02*
X0049655Y0052424D01*
X0049655Y0053423D02*
X0003655Y0053423D01*
X0003655Y0054421D02*
X0049655Y0054421D01*
X0049655Y0055420D02*
X0003655Y0055420D01*
X0003655Y0056418D02*
X0049655Y0056418D01*
X0049655Y0057417D02*
X0003655Y0057417D01*
X0003655Y0058415D02*
X0009615Y0058415D01*
X0007205Y0059414D02*
X0003655Y0059414D01*
X0003655Y0060412D02*
X0006076Y0060412D01*
X0005077Y0061411D02*
X0003655Y0061411D01*
X0003655Y0062409D02*
X0004420Y0062409D01*
X0004006Y0063408D02*
X0003655Y0063408D01*
X0013695Y0058415D02*
X0049655Y0058415D01*
X0049655Y0059414D02*
X0016105Y0059414D01*
X0017234Y0060412D02*
X0049655Y0060412D01*
X0049655Y0061411D02*
X0018233Y0061411D01*
X0018890Y0062409D02*
X0049655Y0062409D01*
X0049655Y0063408D02*
X0019304Y0063408D01*
X0019717Y0064406D02*
X0049655Y0064406D01*
X0049655Y0065405D02*
X0019905Y0065405D01*
X0019905Y0066403D02*
X0049655Y0066403D01*
X0049655Y0067402D02*
X0019905Y0067402D01*
X0019798Y0068400D02*
X0049655Y0068400D01*
X0049655Y0069399D02*
X0019384Y0069399D01*
X0018970Y0070397D02*
X0049655Y0070397D01*
X0049655Y0071396D02*
X0018427Y0071396D01*
X0017428Y0072394D02*
X0049655Y0072394D01*
X0049655Y0073393D02*
X0016429Y0073393D01*
X0014162Y0074391D02*
X0049655Y0074391D01*
X0049655Y0031455D02*
X0028232Y0031455D01*
X0027873Y0031572D02*
X0027155Y0031686D01*
X0027155Y0027000D01*
X0031841Y0027000D01*
X0031727Y0027718D01*
X0031474Y0028496D01*
X0031102Y0029225D01*
X0030621Y0029888D01*
X0030043Y0030466D01*
X0029380Y0030947D01*
X0028651Y0031319D01*
X0027873Y0031572D01*
X0027155Y0031455D02*
X0026155Y0031455D01*
X0026155Y0030457D02*
X0027155Y0030457D01*
X0027155Y0029458D02*
X0026155Y0029458D01*
X0026155Y0028460D02*
X0027155Y0028460D01*
X0027155Y0027461D02*
X0026155Y0027461D01*
X0026155Y0026463D02*
X0003655Y0026463D01*
X0026155Y0025464D02*
X0027155Y0025464D01*
X0027155Y0024466D02*
X0026155Y0024466D01*
X0026155Y0023467D02*
X0027155Y0023467D01*
X0027155Y0022469D02*
X0026155Y0022469D01*
X0027155Y0026463D02*
X0049655Y0026463D01*
X0049655Y0025464D02*
X0031756Y0025464D01*
X0031455Y0024466D02*
X0049655Y0024466D01*
X0049655Y0023467D02*
X0030879Y0023467D01*
X0029953Y0022469D02*
X0049655Y0022469D01*
X0049655Y0019473D02*
X0043964Y0019473D01*
X0046348Y0018475D02*
X0049655Y0018475D01*
X0049655Y0017476D02*
X0047346Y0017476D01*
X0048345Y0016478D02*
X0049655Y0016478D01*
X0049655Y0015479D02*
X0048937Y0015479D01*
X0049350Y0014481D02*
X0049655Y0014481D01*
X0049655Y0027461D02*
X0031768Y0027461D01*
X0031486Y0028460D02*
X0049655Y0028460D01*
X0049655Y0029458D02*
X0030933Y0029458D01*
X0030052Y0030457D02*
X0049655Y0030457D01*
M02*
