G75*
%MOIN*%
%OFA0B0*%
%FSLAX25Y25*%
%IPPOS*%
%LPD*%
%AMOC8*
5,1,8,0,0,1.08239X$1,22.5*
%
%ADD10C,0.07400*%
%ADD11C,0.01000*%
D10*
X0026500Y0006500D03*
X0026500Y0016500D03*
X0026500Y0026500D03*
D11*
X0022712Y0003500D02*
X0003500Y0003500D01*
X0003500Y0064255D01*
X0004506Y0061827D01*
X0006827Y0059506D01*
X0009859Y0058250D01*
X0013141Y0058250D01*
X0016173Y0059506D01*
X0018494Y0061827D01*
X0019750Y0064859D01*
X0019750Y0068141D01*
X0018494Y0071173D01*
X0016173Y0073494D01*
X0013745Y0074500D01*
X0049500Y0074500D01*
X0049500Y0013745D01*
X0048494Y0016173D01*
X0046173Y0018494D01*
X0043141Y0019750D01*
X0039859Y0019750D01*
X0036827Y0018494D01*
X0034506Y0016173D01*
X0033250Y0013141D01*
X0033250Y0009859D01*
X0034506Y0006827D01*
X0036827Y0004506D01*
X0039255Y0003500D01*
X0030288Y0003500D01*
X0030569Y0003781D01*
X0031300Y0005545D01*
X0031300Y0007455D01*
X0030569Y0009219D01*
X0029219Y0010569D01*
X0027455Y0011300D01*
X0025545Y0011300D01*
X0023781Y0010569D01*
X0022431Y0009219D01*
X0021700Y0007455D01*
X0021700Y0005545D01*
X0022431Y0003781D01*
X0022712Y0003500D01*
X0022135Y0004496D02*
X0003500Y0004496D01*
X0003500Y0005494D02*
X0021721Y0005494D01*
X0021700Y0006493D02*
X0003500Y0006493D01*
X0003500Y0007491D02*
X0021715Y0007491D01*
X0022129Y0008490D02*
X0003500Y0008490D01*
X0003500Y0009488D02*
X0022700Y0009488D01*
X0023698Y0010487D02*
X0003500Y0010487D01*
X0003500Y0011485D02*
X0033250Y0011485D01*
X0033250Y0010487D02*
X0029302Y0010487D01*
X0030300Y0009488D02*
X0033404Y0009488D01*
X0033817Y0008490D02*
X0030871Y0008490D01*
X0031285Y0007491D02*
X0034231Y0007491D01*
X0034840Y0006493D02*
X0031300Y0006493D01*
X0031279Y0005494D02*
X0035839Y0005494D01*
X0036852Y0004496D02*
X0030865Y0004496D01*
X0027455Y0011700D02*
X0025545Y0011700D01*
X0023781Y0012431D01*
X0022431Y0013781D01*
X0021700Y0015545D01*
X0021700Y0017455D01*
X0022431Y0019219D01*
X0023781Y0020569D01*
X0025545Y0021300D01*
X0027455Y0021300D01*
X0029219Y0020569D01*
X0030569Y0019219D01*
X0031300Y0017455D01*
X0031300Y0015545D01*
X0030569Y0013781D01*
X0029219Y0012431D01*
X0027455Y0011700D01*
X0029272Y0012484D02*
X0033250Y0012484D01*
X0033391Y0013482D02*
X0030270Y0013482D01*
X0030859Y0014481D02*
X0033805Y0014481D01*
X0034219Y0015479D02*
X0031273Y0015479D01*
X0031300Y0016478D02*
X0034810Y0016478D01*
X0035809Y0017476D02*
X0031291Y0017476D01*
X0030878Y0018475D02*
X0036807Y0018475D01*
X0039191Y0019473D02*
X0030315Y0019473D01*
X0029316Y0020472D02*
X0049500Y0020472D01*
X0049500Y0021470D02*
X0027848Y0021470D01*
X0027718Y0021428D02*
X0028496Y0021681D01*
X0029225Y0022053D01*
X0029888Y0022534D01*
X0030466Y0023112D01*
X0030947Y0023775D01*
X0031319Y0024504D01*
X0031572Y0025282D01*
X0031686Y0026000D01*
X0027000Y0026000D01*
X0027000Y0027000D01*
X0031686Y0027000D01*
X0031572Y0027718D01*
X0031319Y0028496D01*
X0030947Y0029225D01*
X0030466Y0029888D01*
X0029888Y0030466D01*
X0029225Y0030947D01*
X0028496Y0031319D01*
X0027718Y0031572D01*
X0027000Y0031686D01*
X0027000Y0027000D01*
X0026000Y0027000D01*
X0026000Y0031686D01*
X0025282Y0031572D01*
X0024504Y0031319D01*
X0023775Y0030947D01*
X0023112Y0030466D01*
X0022534Y0029888D01*
X0022053Y0029225D01*
X0021681Y0028496D01*
X0021428Y0027718D01*
X0021314Y0027000D01*
X0026000Y0027000D01*
X0026000Y0026000D01*
X0027000Y0026000D01*
X0027000Y0021314D01*
X0027718Y0021428D01*
X0027000Y0021470D02*
X0026000Y0021470D01*
X0026000Y0021314D02*
X0026000Y0026000D01*
X0021314Y0026000D01*
X0021428Y0025282D01*
X0021681Y0024504D01*
X0022053Y0023775D01*
X0022534Y0023112D01*
X0023112Y0022534D01*
X0023775Y0022053D01*
X0024504Y0021681D01*
X0025282Y0021428D01*
X0026000Y0021314D01*
X0025152Y0021470D02*
X0003500Y0021470D01*
X0003500Y0020472D02*
X0023684Y0020472D01*
X0022685Y0019473D02*
X0003500Y0019473D01*
X0003500Y0018475D02*
X0022122Y0018475D01*
X0021709Y0017476D02*
X0003500Y0017476D01*
X0003500Y0016478D02*
X0021700Y0016478D01*
X0021727Y0015479D02*
X0003500Y0015479D01*
X0003500Y0014481D02*
X0022141Y0014481D01*
X0022730Y0013482D02*
X0003500Y0013482D01*
X0003500Y0012484D02*
X0023728Y0012484D01*
X0023202Y0022469D02*
X0003500Y0022469D01*
X0003500Y0023467D02*
X0022276Y0023467D01*
X0021700Y0024466D02*
X0003500Y0024466D01*
X0003500Y0025464D02*
X0021399Y0025464D01*
X0021387Y0027461D02*
X0003500Y0027461D01*
X0003500Y0028460D02*
X0021669Y0028460D01*
X0022222Y0029458D02*
X0003500Y0029458D01*
X0003500Y0030457D02*
X0023103Y0030457D01*
X0024923Y0031455D02*
X0003500Y0031455D01*
X0003500Y0032454D02*
X0049500Y0032454D01*
X0049500Y0033452D02*
X0003500Y0033452D01*
X0003500Y0034451D02*
X0049500Y0034451D01*
X0049500Y0035449D02*
X0003500Y0035449D01*
X0003500Y0036448D02*
X0049500Y0036448D01*
X0049500Y0037446D02*
X0003500Y0037446D01*
X0003500Y0038445D02*
X0049500Y0038445D01*
X0049500Y0039443D02*
X0003500Y0039443D01*
X0003500Y0040442D02*
X0049500Y0040442D01*
X0049500Y0041440D02*
X0003500Y0041440D01*
X0003500Y0042439D02*
X0049500Y0042439D01*
X0049500Y0043437D02*
X0003500Y0043437D01*
X0003500Y0044436D02*
X0049500Y0044436D01*
X0049500Y0045434D02*
X0003500Y0045434D01*
X0003500Y0046433D02*
X0049500Y0046433D01*
X0049500Y0047432D02*
X0003500Y0047432D01*
X0003500Y0048430D02*
X0049500Y0048430D01*
X0049500Y0049429D02*
X0003500Y0049429D01*
X0003500Y0050427D02*
X0049500Y0050427D01*
X0049500Y0051426D02*
X0003500Y0051426D01*
X0003500Y0052424D02*
X0049500Y0052424D01*
X0049500Y0053423D02*
X0003500Y0053423D01*
X0003500Y0054421D02*
X0049500Y0054421D01*
X0049500Y0055420D02*
X0003500Y0055420D01*
X0003500Y0056418D02*
X0049500Y0056418D01*
X0049500Y0057417D02*
X0003500Y0057417D01*
X0003500Y0058415D02*
X0009460Y0058415D01*
X0007050Y0059414D02*
X0003500Y0059414D01*
X0003500Y0060412D02*
X0005921Y0060412D01*
X0004922Y0061411D02*
X0003500Y0061411D01*
X0003500Y0062409D02*
X0004265Y0062409D01*
X0003851Y0063408D02*
X0003500Y0063408D01*
X0013540Y0058415D02*
X0049500Y0058415D01*
X0049500Y0059414D02*
X0015950Y0059414D01*
X0017079Y0060412D02*
X0049500Y0060412D01*
X0049500Y0061411D02*
X0018078Y0061411D01*
X0018735Y0062409D02*
X0049500Y0062409D01*
X0049500Y0063408D02*
X0019149Y0063408D01*
X0019562Y0064406D02*
X0049500Y0064406D01*
X0049500Y0065405D02*
X0019750Y0065405D01*
X0019750Y0066403D02*
X0049500Y0066403D01*
X0049500Y0067402D02*
X0019750Y0067402D01*
X0019643Y0068400D02*
X0049500Y0068400D01*
X0049500Y0069399D02*
X0019229Y0069399D01*
X0018815Y0070397D02*
X0049500Y0070397D01*
X0049500Y0071396D02*
X0018271Y0071396D01*
X0017273Y0072394D02*
X0049500Y0072394D01*
X0049500Y0073393D02*
X0016274Y0073393D01*
X0014007Y0074391D02*
X0049500Y0074391D01*
X0049500Y0031455D02*
X0028077Y0031455D01*
X0027000Y0031455D02*
X0026000Y0031455D01*
X0026000Y0030457D02*
X0027000Y0030457D01*
X0027000Y0029458D02*
X0026000Y0029458D01*
X0026000Y0028460D02*
X0027000Y0028460D01*
X0027000Y0027461D02*
X0026000Y0027461D01*
X0026000Y0026463D02*
X0003500Y0026463D01*
X0026000Y0025464D02*
X0027000Y0025464D01*
X0027000Y0024466D02*
X0026000Y0024466D01*
X0026000Y0023467D02*
X0027000Y0023467D01*
X0027000Y0022469D02*
X0026000Y0022469D01*
X0027000Y0026463D02*
X0049500Y0026463D01*
X0049500Y0025464D02*
X0031601Y0025464D01*
X0031300Y0024466D02*
X0049500Y0024466D01*
X0049500Y0023467D02*
X0030724Y0023467D01*
X0029798Y0022469D02*
X0049500Y0022469D01*
X0049500Y0019473D02*
X0043809Y0019473D01*
X0046193Y0018475D02*
X0049500Y0018475D01*
X0049500Y0017476D02*
X0047191Y0017476D01*
X0048190Y0016478D02*
X0049500Y0016478D01*
X0049500Y0015479D02*
X0048781Y0015479D01*
X0049195Y0014481D02*
X0049500Y0014481D01*
X0049500Y0027461D02*
X0031613Y0027461D01*
X0031331Y0028460D02*
X0049500Y0028460D01*
X0049500Y0029458D02*
X0030778Y0029458D01*
X0029897Y0030457D02*
X0049500Y0030457D01*
M02*
