G75*
%MOIN*%
%OFA0B0*%
%FSLAX25Y25*%
%IPPOS*%
%LPD*%
%AMOC8*
5,1,8,0,0,1.08239X$1,22.5*
%
%ADD10C,0.07400*%
%ADD11R,0.03937X0.04331*%
%ADD12R,0.05118X0.06102*%
%ADD13C,0.01000*%
D10*
X0026500Y0006500D03*
X0026500Y0016500D03*
X0026500Y0026500D03*
D11*
X0037154Y0028500D03*
X0043846Y0028500D03*
D12*
X0044858Y0037850D03*
X0027142Y0037850D03*
X0027142Y0069150D03*
X0044858Y0069150D03*
D13*
X0003500Y0064255D02*
X0003500Y0003500D01*
X0022712Y0003500D01*
X0022431Y0003781D01*
X0021700Y0005545D01*
X0021700Y0007455D01*
X0022431Y0009219D01*
X0023781Y0010569D01*
X0025545Y0011300D01*
X0027455Y0011300D01*
X0028574Y0010836D01*
X0029900Y0012163D01*
X0029900Y0013112D01*
X0029219Y0012431D01*
X0027455Y0011700D01*
X0025545Y0011700D01*
X0023781Y0012431D01*
X0022431Y0013781D01*
X0021700Y0015545D01*
X0021700Y0017455D01*
X0022431Y0019219D01*
X0023781Y0020569D01*
X0025545Y0021300D01*
X0027455Y0021300D01*
X0028574Y0020836D01*
X0030900Y0023163D01*
X0030900Y0023709D01*
X0030466Y0023112D01*
X0029888Y0022534D01*
X0029225Y0022053D01*
X0028496Y0021681D01*
X0027718Y0021428D01*
X0027000Y0021314D01*
X0027000Y0026000D01*
X0026000Y0026000D01*
X0026000Y0021314D01*
X0025282Y0021428D01*
X0024504Y0021681D01*
X0023775Y0022053D01*
X0023112Y0022534D01*
X0022534Y0023112D01*
X0022053Y0023775D01*
X0021681Y0024504D01*
X0021428Y0025282D01*
X0021314Y0026000D01*
X0026000Y0026000D01*
X0026000Y0027000D01*
X0026000Y0031686D01*
X0025282Y0031572D01*
X0024504Y0031319D01*
X0023775Y0030947D01*
X0023112Y0030466D01*
X0022534Y0029888D01*
X0022053Y0029225D01*
X0021681Y0028496D01*
X0021428Y0027718D01*
X0021314Y0027000D01*
X0026000Y0027000D01*
X0027000Y0027000D01*
X0027000Y0031686D01*
X0027718Y0031572D01*
X0028496Y0031319D01*
X0029225Y0030947D01*
X0029888Y0030466D01*
X0030466Y0029888D01*
X0030947Y0029225D01*
X0031319Y0028496D01*
X0031421Y0028183D01*
X0032400Y0029163D01*
X0033337Y0030100D01*
X0034085Y0030100D01*
X0034085Y0031121D01*
X0034729Y0031765D01*
X0039578Y0031765D01*
X0040222Y0031121D01*
X0040222Y0025879D01*
X0039578Y0025235D01*
X0034729Y0025235D01*
X0034100Y0025864D01*
X0034100Y0021837D01*
X0033163Y0020900D01*
X0033163Y0020900D01*
X0030836Y0018574D01*
X0031268Y0017531D01*
X0038837Y0025100D01*
X0041837Y0025100D01*
X0041972Y0025235D01*
X0041422Y0025235D01*
X0040778Y0025879D01*
X0040778Y0031121D01*
X0041422Y0031765D01*
X0042246Y0031765D01*
X0042246Y0033699D01*
X0041844Y0033699D01*
X0041199Y0034344D01*
X0041199Y0041357D01*
X0041844Y0042002D01*
X0043258Y0042002D01*
X0043258Y0064998D01*
X0041844Y0064998D01*
X0041199Y0065643D01*
X0041199Y0072656D01*
X0041844Y0073301D01*
X0047873Y0073301D01*
X0048517Y0072656D01*
X0048517Y0065643D01*
X0047873Y0064998D01*
X0046458Y0064998D01*
X0046458Y0042002D01*
X0047873Y0042002D01*
X0048517Y0041357D01*
X0048517Y0034344D01*
X0047873Y0033699D01*
X0045446Y0033699D01*
X0045446Y0031765D01*
X0046271Y0031765D01*
X0046915Y0031121D01*
X0046915Y0025879D01*
X0046271Y0025235D01*
X0045600Y0025235D01*
X0045600Y0024337D01*
X0044663Y0023400D01*
X0043163Y0021900D01*
X0040163Y0021900D01*
X0033100Y0014837D01*
X0033100Y0010837D01*
X0030836Y0008574D01*
X0031300Y0007455D01*
X0031300Y0005545D01*
X0030569Y0003781D01*
X0030288Y0003500D01*
X0039255Y0003500D01*
X0036827Y0004506D01*
X0034506Y0006827D01*
X0033250Y0009859D01*
X0033250Y0013141D01*
X0034506Y0016173D01*
X0036827Y0018494D01*
X0039859Y0019750D01*
X0043141Y0019750D01*
X0046173Y0018494D01*
X0048494Y0016173D01*
X0049500Y0013745D01*
X0049500Y0074500D01*
X0013745Y0074500D01*
X0016173Y0073494D01*
X0018494Y0071173D01*
X0019750Y0068141D01*
X0019750Y0064859D01*
X0018494Y0061827D01*
X0016173Y0059506D01*
X0013141Y0058250D01*
X0009859Y0058250D01*
X0006827Y0059506D01*
X0004506Y0061827D01*
X0003500Y0064255D01*
X0003500Y0063408D02*
X0003851Y0063408D01*
X0003500Y0062409D02*
X0004265Y0062409D01*
X0004922Y0061411D02*
X0003500Y0061411D01*
X0003500Y0060412D02*
X0005921Y0060412D01*
X0007050Y0059414D02*
X0003500Y0059414D01*
X0003500Y0058415D02*
X0009460Y0058415D01*
X0013540Y0058415D02*
X0043258Y0058415D01*
X0043258Y0057417D02*
X0003500Y0057417D01*
X0003500Y0056418D02*
X0043258Y0056418D01*
X0043258Y0055420D02*
X0003500Y0055420D01*
X0003500Y0054421D02*
X0043258Y0054421D01*
X0043258Y0053423D02*
X0003500Y0053423D01*
X0003500Y0052424D02*
X0043258Y0052424D01*
X0043258Y0051426D02*
X0003500Y0051426D01*
X0003500Y0050427D02*
X0043258Y0050427D01*
X0043258Y0049429D02*
X0003500Y0049429D01*
X0003500Y0048430D02*
X0043258Y0048430D01*
X0043258Y0047432D02*
X0003500Y0047432D01*
X0003500Y0046433D02*
X0043258Y0046433D01*
X0043258Y0045434D02*
X0003500Y0045434D01*
X0003500Y0044436D02*
X0043258Y0044436D01*
X0043258Y0043437D02*
X0003500Y0043437D01*
X0003500Y0042439D02*
X0043258Y0042439D01*
X0041282Y0041440D02*
X0031109Y0041440D01*
X0031099Y0041481D02*
X0030901Y0041823D01*
X0030622Y0042102D01*
X0030280Y0042299D01*
X0029898Y0042402D01*
X0027642Y0042402D01*
X0027642Y0038350D01*
X0031201Y0038350D01*
X0031201Y0041099D01*
X0031099Y0041481D01*
X0031201Y0040442D02*
X0041199Y0040442D01*
X0041199Y0039443D02*
X0031201Y0039443D01*
X0031201Y0038445D02*
X0041199Y0038445D01*
X0041199Y0037446D02*
X0027642Y0037446D01*
X0027642Y0037350D02*
X0027642Y0038350D01*
X0026642Y0038350D01*
X0026642Y0037350D01*
X0027642Y0037350D01*
X0027642Y0033299D01*
X0029898Y0033299D01*
X0030280Y0033401D01*
X0030622Y0033599D01*
X0030901Y0033878D01*
X0031099Y0034220D01*
X0031201Y0034602D01*
X0031201Y0037350D01*
X0027642Y0037350D01*
X0027142Y0037850D02*
X0027142Y0069358D01*
X0027000Y0069500D01*
X0023483Y0072656D02*
X0024127Y0073301D01*
X0030156Y0073301D01*
X0030801Y0072656D01*
X0030801Y0065643D01*
X0030156Y0064998D01*
X0024127Y0064998D01*
X0023483Y0065643D01*
X0023483Y0072656D01*
X0023483Y0072394D02*
X0017273Y0072394D01*
X0018271Y0071396D02*
X0023483Y0071396D01*
X0023483Y0070397D02*
X0018815Y0070397D01*
X0019229Y0069399D02*
X0023483Y0069399D01*
X0023483Y0068400D02*
X0019643Y0068400D01*
X0019750Y0067402D02*
X0023483Y0067402D01*
X0023483Y0066403D02*
X0019750Y0066403D01*
X0019750Y0065405D02*
X0023721Y0065405D01*
X0019562Y0064406D02*
X0043258Y0064406D01*
X0043258Y0063408D02*
X0019149Y0063408D01*
X0018735Y0062409D02*
X0043258Y0062409D01*
X0043258Y0061411D02*
X0018078Y0061411D01*
X0017079Y0060412D02*
X0043258Y0060412D01*
X0043258Y0059414D02*
X0015950Y0059414D01*
X0016274Y0073393D02*
X0049500Y0073393D01*
X0049500Y0074391D02*
X0014007Y0074391D01*
X0030801Y0072394D02*
X0041199Y0072394D01*
X0041199Y0071396D02*
X0030801Y0071396D01*
X0030801Y0070397D02*
X0041199Y0070397D01*
X0041199Y0069399D02*
X0030801Y0069399D01*
X0030801Y0068400D02*
X0041199Y0068400D01*
X0041199Y0067402D02*
X0030801Y0067402D01*
X0030801Y0066403D02*
X0041199Y0066403D01*
X0041437Y0065405D02*
X0030563Y0065405D01*
X0044858Y0068858D02*
X0045000Y0069000D01*
X0044858Y0068858D02*
X0044858Y0037850D01*
X0043846Y0036839D01*
X0043846Y0028500D01*
X0044000Y0028346D01*
X0044000Y0025000D01*
X0042500Y0023500D01*
X0039500Y0023500D01*
X0031500Y0015500D01*
X0031500Y0011500D01*
X0026500Y0006500D01*
X0023698Y0010487D02*
X0003500Y0010487D01*
X0003500Y0011485D02*
X0029222Y0011485D01*
X0029272Y0012484D02*
X0029900Y0012484D01*
X0031751Y0009488D02*
X0033404Y0009488D01*
X0033250Y0010487D02*
X0032749Y0010487D01*
X0033100Y0011485D02*
X0033250Y0011485D01*
X0033250Y0012484D02*
X0033100Y0012484D01*
X0033100Y0013482D02*
X0033391Y0013482D01*
X0033100Y0014481D02*
X0033805Y0014481D01*
X0033742Y0015479D02*
X0034219Y0015479D01*
X0034740Y0016478D02*
X0034810Y0016478D01*
X0035739Y0017476D02*
X0035809Y0017476D01*
X0036737Y0018475D02*
X0036807Y0018475D01*
X0037736Y0019473D02*
X0039191Y0019473D01*
X0038734Y0020472D02*
X0049500Y0020472D01*
X0049500Y0021470D02*
X0039733Y0021470D01*
X0037205Y0023467D02*
X0034100Y0023467D01*
X0034100Y0024466D02*
X0038203Y0024466D01*
X0039807Y0025464D02*
X0041193Y0025464D01*
X0040778Y0026463D02*
X0040222Y0026463D01*
X0040222Y0027461D02*
X0040778Y0027461D01*
X0040778Y0028460D02*
X0040222Y0028460D01*
X0040222Y0029458D02*
X0040778Y0029458D01*
X0040778Y0030457D02*
X0040222Y0030457D01*
X0039888Y0031455D02*
X0041112Y0031455D01*
X0042246Y0032454D02*
X0003500Y0032454D01*
X0003500Y0033452D02*
X0023915Y0033452D01*
X0024004Y0033401D02*
X0023662Y0033599D01*
X0023382Y0033878D01*
X0023185Y0034220D01*
X0023083Y0034602D01*
X0023083Y0037350D01*
X0026642Y0037350D01*
X0026642Y0033299D01*
X0024385Y0033299D01*
X0024004Y0033401D01*
X0023123Y0034451D02*
X0003500Y0034451D01*
X0003500Y0035449D02*
X0023083Y0035449D01*
X0023083Y0036448D02*
X0003500Y0036448D01*
X0003500Y0037446D02*
X0026642Y0037446D01*
X0026642Y0038350D02*
X0023083Y0038350D01*
X0023083Y0041099D01*
X0023185Y0041481D01*
X0023382Y0041823D01*
X0023662Y0042102D01*
X0024004Y0042299D01*
X0024385Y0042402D01*
X0026642Y0042402D01*
X0026642Y0038350D01*
X0026642Y0038445D02*
X0027642Y0038445D01*
X0027642Y0039443D02*
X0026642Y0039443D01*
X0026642Y0040442D02*
X0027642Y0040442D01*
X0027642Y0041440D02*
X0026642Y0041440D01*
X0023174Y0041440D02*
X0003500Y0041440D01*
X0003500Y0040442D02*
X0023083Y0040442D01*
X0023083Y0039443D02*
X0003500Y0039443D01*
X0003500Y0038445D02*
X0023083Y0038445D01*
X0026642Y0036448D02*
X0027642Y0036448D01*
X0027642Y0035449D02*
X0026642Y0035449D01*
X0026642Y0034451D02*
X0027642Y0034451D01*
X0027642Y0033452D02*
X0026642Y0033452D01*
X0027000Y0031455D02*
X0026000Y0031455D01*
X0026000Y0030457D02*
X0027000Y0030457D01*
X0027000Y0029458D02*
X0026000Y0029458D01*
X0026000Y0028460D02*
X0027000Y0028460D01*
X0027000Y0027461D02*
X0026000Y0027461D01*
X0026000Y0026463D02*
X0003500Y0026463D01*
X0003500Y0025464D02*
X0021399Y0025464D01*
X0021700Y0024466D02*
X0003500Y0024466D01*
X0003500Y0023467D02*
X0022276Y0023467D01*
X0023202Y0022469D02*
X0003500Y0022469D01*
X0003500Y0021470D02*
X0025152Y0021470D01*
X0026000Y0021470D02*
X0027000Y0021470D01*
X0027000Y0022469D02*
X0026000Y0022469D01*
X0026000Y0023467D02*
X0027000Y0023467D01*
X0027000Y0024466D02*
X0026000Y0024466D01*
X0026000Y0025464D02*
X0027000Y0025464D01*
X0027848Y0021470D02*
X0029208Y0021470D01*
X0029798Y0022469D02*
X0030206Y0022469D01*
X0030724Y0023467D02*
X0030900Y0023467D01*
X0032500Y0022500D02*
X0026500Y0016500D01*
X0023684Y0020472D02*
X0003500Y0020472D01*
X0003500Y0019473D02*
X0022685Y0019473D01*
X0022122Y0018475D02*
X0003500Y0018475D01*
X0003500Y0017476D02*
X0021709Y0017476D01*
X0021700Y0016478D02*
X0003500Y0016478D01*
X0003500Y0015479D02*
X0021727Y0015479D01*
X0022141Y0014481D02*
X0003500Y0014481D01*
X0003500Y0013482D02*
X0022730Y0013482D01*
X0023728Y0012484D02*
X0003500Y0012484D01*
X0003500Y0009488D02*
X0022700Y0009488D01*
X0022129Y0008490D02*
X0003500Y0008490D01*
X0003500Y0007491D02*
X0021715Y0007491D01*
X0021700Y0006493D02*
X0003500Y0006493D01*
X0003500Y0005494D02*
X0021721Y0005494D01*
X0022135Y0004496D02*
X0003500Y0004496D01*
X0003500Y0027461D02*
X0021387Y0027461D01*
X0021669Y0028460D02*
X0003500Y0028460D01*
X0003500Y0029458D02*
X0022222Y0029458D01*
X0023103Y0030457D02*
X0003500Y0030457D01*
X0003500Y0031455D02*
X0024923Y0031455D01*
X0028077Y0031455D02*
X0034419Y0031455D01*
X0034085Y0030457D02*
X0029897Y0030457D01*
X0030778Y0029458D02*
X0032696Y0029458D01*
X0031697Y0028460D02*
X0031331Y0028460D01*
X0032500Y0027000D02*
X0034000Y0028500D01*
X0037154Y0028500D01*
X0034500Y0025464D02*
X0034100Y0025464D01*
X0032500Y0027000D02*
X0032500Y0022500D01*
X0033733Y0021470D02*
X0035208Y0021470D01*
X0036206Y0022469D02*
X0034100Y0022469D01*
X0034209Y0020472D02*
X0032734Y0020472D01*
X0033210Y0019473D02*
X0031736Y0019473D01*
X0032212Y0018475D02*
X0030878Y0018475D01*
X0030871Y0008490D02*
X0033817Y0008490D01*
X0034231Y0007491D02*
X0031285Y0007491D01*
X0031300Y0006493D02*
X0034840Y0006493D01*
X0035839Y0005494D02*
X0031279Y0005494D01*
X0030865Y0004496D02*
X0036852Y0004496D01*
X0046193Y0018475D02*
X0049500Y0018475D01*
X0049500Y0019473D02*
X0043809Y0019473D01*
X0043731Y0022469D02*
X0049500Y0022469D01*
X0049500Y0023467D02*
X0044730Y0023467D01*
X0045600Y0024466D02*
X0049500Y0024466D01*
X0049500Y0025464D02*
X0046500Y0025464D01*
X0046915Y0026463D02*
X0049500Y0026463D01*
X0049500Y0027461D02*
X0046915Y0027461D01*
X0046915Y0028460D02*
X0049500Y0028460D01*
X0049500Y0029458D02*
X0046915Y0029458D01*
X0046915Y0030457D02*
X0049500Y0030457D01*
X0049500Y0031455D02*
X0046581Y0031455D01*
X0045446Y0032454D02*
X0049500Y0032454D01*
X0049500Y0033452D02*
X0045446Y0033452D01*
X0042246Y0033452D02*
X0030368Y0033452D01*
X0031160Y0034451D02*
X0041199Y0034451D01*
X0041199Y0035449D02*
X0031201Y0035449D01*
X0031201Y0036448D02*
X0041199Y0036448D01*
X0046458Y0042439D02*
X0049500Y0042439D01*
X0049500Y0043437D02*
X0046458Y0043437D01*
X0046458Y0044436D02*
X0049500Y0044436D01*
X0049500Y0045434D02*
X0046458Y0045434D01*
X0046458Y0046433D02*
X0049500Y0046433D01*
X0049500Y0047432D02*
X0046458Y0047432D01*
X0046458Y0048430D02*
X0049500Y0048430D01*
X0049500Y0049429D02*
X0046458Y0049429D01*
X0046458Y0050427D02*
X0049500Y0050427D01*
X0049500Y0051426D02*
X0046458Y0051426D01*
X0046458Y0052424D02*
X0049500Y0052424D01*
X0049500Y0053423D02*
X0046458Y0053423D01*
X0046458Y0054421D02*
X0049500Y0054421D01*
X0049500Y0055420D02*
X0046458Y0055420D01*
X0046458Y0056418D02*
X0049500Y0056418D01*
X0049500Y0057417D02*
X0046458Y0057417D01*
X0046458Y0058415D02*
X0049500Y0058415D01*
X0049500Y0059414D02*
X0046458Y0059414D01*
X0046458Y0060412D02*
X0049500Y0060412D01*
X0049500Y0061411D02*
X0046458Y0061411D01*
X0046458Y0062409D02*
X0049500Y0062409D01*
X0049500Y0063408D02*
X0046458Y0063408D01*
X0046458Y0064406D02*
X0049500Y0064406D01*
X0049500Y0065405D02*
X0048279Y0065405D01*
X0048517Y0066403D02*
X0049500Y0066403D01*
X0049500Y0067402D02*
X0048517Y0067402D01*
X0048517Y0068400D02*
X0049500Y0068400D01*
X0049500Y0069399D02*
X0048517Y0069399D01*
X0048517Y0070397D02*
X0049500Y0070397D01*
X0049500Y0071396D02*
X0048517Y0071396D01*
X0048517Y0072394D02*
X0049500Y0072394D01*
X0049500Y0041440D02*
X0048434Y0041440D01*
X0048517Y0040442D02*
X0049500Y0040442D01*
X0049500Y0039443D02*
X0048517Y0039443D01*
X0048517Y0038445D02*
X0049500Y0038445D01*
X0049500Y0037446D02*
X0048517Y0037446D01*
X0048517Y0036448D02*
X0049500Y0036448D01*
X0049500Y0035449D02*
X0048517Y0035449D01*
X0048517Y0034451D02*
X0049500Y0034451D01*
X0049500Y0017476D02*
X0047191Y0017476D01*
X0048190Y0016478D02*
X0049500Y0016478D01*
X0049500Y0015479D02*
X0048781Y0015479D01*
X0049195Y0014481D02*
X0049500Y0014481D01*
M02*
