G75*
%MOIN*%
%OFA0B0*%
%FSLAX25Y25*%
%IPPOS*%
%LPD*%
%AMOC8*
5,1,8,0,0,1.08239X$1,22.5*
%
%ADD10C,0.00000*%
%ADD11C,0.00600*%
%ADD12C,0.01000*%
D10*
X0001500Y0001500D02*
X0001500Y0076500D01*
X0051500Y0076500D01*
X0051500Y0001500D01*
X0001500Y0001500D01*
X0035250Y0011500D02*
X0035252Y0011658D01*
X0035258Y0011815D01*
X0035268Y0011973D01*
X0035282Y0012130D01*
X0035300Y0012286D01*
X0035321Y0012443D01*
X0035347Y0012598D01*
X0035377Y0012753D01*
X0035410Y0012907D01*
X0035448Y0013060D01*
X0035489Y0013213D01*
X0035534Y0013364D01*
X0035583Y0013514D01*
X0035636Y0013662D01*
X0035692Y0013810D01*
X0035753Y0013955D01*
X0035816Y0014100D01*
X0035884Y0014242D01*
X0035955Y0014383D01*
X0036029Y0014522D01*
X0036107Y0014659D01*
X0036189Y0014794D01*
X0036273Y0014927D01*
X0036362Y0015058D01*
X0036453Y0015186D01*
X0036548Y0015313D01*
X0036645Y0015436D01*
X0036746Y0015558D01*
X0036850Y0015676D01*
X0036957Y0015792D01*
X0037067Y0015905D01*
X0037179Y0016016D01*
X0037295Y0016123D01*
X0037413Y0016228D01*
X0037533Y0016330D01*
X0037656Y0016428D01*
X0037782Y0016524D01*
X0037910Y0016616D01*
X0038040Y0016705D01*
X0038172Y0016791D01*
X0038307Y0016873D01*
X0038444Y0016952D01*
X0038582Y0017027D01*
X0038722Y0017099D01*
X0038865Y0017167D01*
X0039008Y0017232D01*
X0039154Y0017293D01*
X0039301Y0017350D01*
X0039449Y0017404D01*
X0039599Y0017454D01*
X0039749Y0017500D01*
X0039901Y0017542D01*
X0040054Y0017581D01*
X0040208Y0017615D01*
X0040363Y0017646D01*
X0040518Y0017672D01*
X0040674Y0017695D01*
X0040831Y0017714D01*
X0040988Y0017729D01*
X0041145Y0017740D01*
X0041303Y0017747D01*
X0041461Y0017750D01*
X0041618Y0017749D01*
X0041776Y0017744D01*
X0041933Y0017735D01*
X0042091Y0017722D01*
X0042247Y0017705D01*
X0042404Y0017684D01*
X0042559Y0017660D01*
X0042714Y0017631D01*
X0042869Y0017598D01*
X0043022Y0017562D01*
X0043175Y0017521D01*
X0043326Y0017477D01*
X0043476Y0017429D01*
X0043625Y0017378D01*
X0043773Y0017322D01*
X0043919Y0017263D01*
X0044064Y0017200D01*
X0044207Y0017133D01*
X0044348Y0017063D01*
X0044487Y0016990D01*
X0044625Y0016913D01*
X0044761Y0016832D01*
X0044894Y0016748D01*
X0045025Y0016661D01*
X0045154Y0016570D01*
X0045281Y0016476D01*
X0045406Y0016379D01*
X0045527Y0016279D01*
X0045647Y0016176D01*
X0045763Y0016070D01*
X0045877Y0015961D01*
X0045989Y0015849D01*
X0046097Y0015735D01*
X0046202Y0015617D01*
X0046305Y0015497D01*
X0046404Y0015375D01*
X0046500Y0015250D01*
X0046593Y0015122D01*
X0046683Y0014993D01*
X0046769Y0014861D01*
X0046853Y0014727D01*
X0046932Y0014591D01*
X0047009Y0014453D01*
X0047081Y0014313D01*
X0047150Y0014171D01*
X0047216Y0014028D01*
X0047278Y0013883D01*
X0047336Y0013736D01*
X0047391Y0013588D01*
X0047442Y0013439D01*
X0047489Y0013288D01*
X0047532Y0013137D01*
X0047571Y0012984D01*
X0047607Y0012830D01*
X0047638Y0012676D01*
X0047666Y0012521D01*
X0047690Y0012365D01*
X0047710Y0012208D01*
X0047726Y0012051D01*
X0047738Y0011894D01*
X0047746Y0011737D01*
X0047750Y0011579D01*
X0047750Y0011421D01*
X0047746Y0011263D01*
X0047738Y0011106D01*
X0047726Y0010949D01*
X0047710Y0010792D01*
X0047690Y0010635D01*
X0047666Y0010479D01*
X0047638Y0010324D01*
X0047607Y0010170D01*
X0047571Y0010016D01*
X0047532Y0009863D01*
X0047489Y0009712D01*
X0047442Y0009561D01*
X0047391Y0009412D01*
X0047336Y0009264D01*
X0047278Y0009117D01*
X0047216Y0008972D01*
X0047150Y0008829D01*
X0047081Y0008687D01*
X0047009Y0008547D01*
X0046932Y0008409D01*
X0046853Y0008273D01*
X0046769Y0008139D01*
X0046683Y0008007D01*
X0046593Y0007878D01*
X0046500Y0007750D01*
X0046404Y0007625D01*
X0046305Y0007503D01*
X0046202Y0007383D01*
X0046097Y0007265D01*
X0045989Y0007151D01*
X0045877Y0007039D01*
X0045763Y0006930D01*
X0045647Y0006824D01*
X0045527Y0006721D01*
X0045406Y0006621D01*
X0045281Y0006524D01*
X0045154Y0006430D01*
X0045025Y0006339D01*
X0044894Y0006252D01*
X0044761Y0006168D01*
X0044625Y0006087D01*
X0044487Y0006010D01*
X0044348Y0005937D01*
X0044207Y0005867D01*
X0044064Y0005800D01*
X0043919Y0005737D01*
X0043773Y0005678D01*
X0043625Y0005622D01*
X0043476Y0005571D01*
X0043326Y0005523D01*
X0043175Y0005479D01*
X0043022Y0005438D01*
X0042869Y0005402D01*
X0042714Y0005369D01*
X0042559Y0005340D01*
X0042404Y0005316D01*
X0042247Y0005295D01*
X0042091Y0005278D01*
X0041933Y0005265D01*
X0041776Y0005256D01*
X0041618Y0005251D01*
X0041461Y0005250D01*
X0041303Y0005253D01*
X0041145Y0005260D01*
X0040988Y0005271D01*
X0040831Y0005286D01*
X0040674Y0005305D01*
X0040518Y0005328D01*
X0040363Y0005354D01*
X0040208Y0005385D01*
X0040054Y0005419D01*
X0039901Y0005458D01*
X0039749Y0005500D01*
X0039599Y0005546D01*
X0039449Y0005596D01*
X0039301Y0005650D01*
X0039154Y0005707D01*
X0039008Y0005768D01*
X0038865Y0005833D01*
X0038722Y0005901D01*
X0038582Y0005973D01*
X0038444Y0006048D01*
X0038307Y0006127D01*
X0038172Y0006209D01*
X0038040Y0006295D01*
X0037910Y0006384D01*
X0037782Y0006476D01*
X0037656Y0006572D01*
X0037533Y0006670D01*
X0037413Y0006772D01*
X0037295Y0006877D01*
X0037179Y0006984D01*
X0037067Y0007095D01*
X0036957Y0007208D01*
X0036850Y0007324D01*
X0036746Y0007442D01*
X0036645Y0007564D01*
X0036548Y0007687D01*
X0036453Y0007814D01*
X0036362Y0007942D01*
X0036273Y0008073D01*
X0036189Y0008206D01*
X0036107Y0008341D01*
X0036029Y0008478D01*
X0035955Y0008617D01*
X0035884Y0008758D01*
X0035816Y0008900D01*
X0035753Y0009045D01*
X0035692Y0009190D01*
X0035636Y0009338D01*
X0035583Y0009486D01*
X0035534Y0009636D01*
X0035489Y0009787D01*
X0035448Y0009940D01*
X0035410Y0010093D01*
X0035377Y0010247D01*
X0035347Y0010402D01*
X0035321Y0010557D01*
X0035300Y0010714D01*
X0035282Y0010870D01*
X0035268Y0011027D01*
X0035258Y0011185D01*
X0035252Y0011342D01*
X0035250Y0011500D01*
X0005250Y0066500D02*
X0005252Y0066658D01*
X0005258Y0066815D01*
X0005268Y0066973D01*
X0005282Y0067130D01*
X0005300Y0067286D01*
X0005321Y0067443D01*
X0005347Y0067598D01*
X0005377Y0067753D01*
X0005410Y0067907D01*
X0005448Y0068060D01*
X0005489Y0068213D01*
X0005534Y0068364D01*
X0005583Y0068514D01*
X0005636Y0068662D01*
X0005692Y0068810D01*
X0005753Y0068955D01*
X0005816Y0069100D01*
X0005884Y0069242D01*
X0005955Y0069383D01*
X0006029Y0069522D01*
X0006107Y0069659D01*
X0006189Y0069794D01*
X0006273Y0069927D01*
X0006362Y0070058D01*
X0006453Y0070186D01*
X0006548Y0070313D01*
X0006645Y0070436D01*
X0006746Y0070558D01*
X0006850Y0070676D01*
X0006957Y0070792D01*
X0007067Y0070905D01*
X0007179Y0071016D01*
X0007295Y0071123D01*
X0007413Y0071228D01*
X0007533Y0071330D01*
X0007656Y0071428D01*
X0007782Y0071524D01*
X0007910Y0071616D01*
X0008040Y0071705D01*
X0008172Y0071791D01*
X0008307Y0071873D01*
X0008444Y0071952D01*
X0008582Y0072027D01*
X0008722Y0072099D01*
X0008865Y0072167D01*
X0009008Y0072232D01*
X0009154Y0072293D01*
X0009301Y0072350D01*
X0009449Y0072404D01*
X0009599Y0072454D01*
X0009749Y0072500D01*
X0009901Y0072542D01*
X0010054Y0072581D01*
X0010208Y0072615D01*
X0010363Y0072646D01*
X0010518Y0072672D01*
X0010674Y0072695D01*
X0010831Y0072714D01*
X0010988Y0072729D01*
X0011145Y0072740D01*
X0011303Y0072747D01*
X0011461Y0072750D01*
X0011618Y0072749D01*
X0011776Y0072744D01*
X0011933Y0072735D01*
X0012091Y0072722D01*
X0012247Y0072705D01*
X0012404Y0072684D01*
X0012559Y0072660D01*
X0012714Y0072631D01*
X0012869Y0072598D01*
X0013022Y0072562D01*
X0013175Y0072521D01*
X0013326Y0072477D01*
X0013476Y0072429D01*
X0013625Y0072378D01*
X0013773Y0072322D01*
X0013919Y0072263D01*
X0014064Y0072200D01*
X0014207Y0072133D01*
X0014348Y0072063D01*
X0014487Y0071990D01*
X0014625Y0071913D01*
X0014761Y0071832D01*
X0014894Y0071748D01*
X0015025Y0071661D01*
X0015154Y0071570D01*
X0015281Y0071476D01*
X0015406Y0071379D01*
X0015527Y0071279D01*
X0015647Y0071176D01*
X0015763Y0071070D01*
X0015877Y0070961D01*
X0015989Y0070849D01*
X0016097Y0070735D01*
X0016202Y0070617D01*
X0016305Y0070497D01*
X0016404Y0070375D01*
X0016500Y0070250D01*
X0016593Y0070122D01*
X0016683Y0069993D01*
X0016769Y0069861D01*
X0016853Y0069727D01*
X0016932Y0069591D01*
X0017009Y0069453D01*
X0017081Y0069313D01*
X0017150Y0069171D01*
X0017216Y0069028D01*
X0017278Y0068883D01*
X0017336Y0068736D01*
X0017391Y0068588D01*
X0017442Y0068439D01*
X0017489Y0068288D01*
X0017532Y0068137D01*
X0017571Y0067984D01*
X0017607Y0067830D01*
X0017638Y0067676D01*
X0017666Y0067521D01*
X0017690Y0067365D01*
X0017710Y0067208D01*
X0017726Y0067051D01*
X0017738Y0066894D01*
X0017746Y0066737D01*
X0017750Y0066579D01*
X0017750Y0066421D01*
X0017746Y0066263D01*
X0017738Y0066106D01*
X0017726Y0065949D01*
X0017710Y0065792D01*
X0017690Y0065635D01*
X0017666Y0065479D01*
X0017638Y0065324D01*
X0017607Y0065170D01*
X0017571Y0065016D01*
X0017532Y0064863D01*
X0017489Y0064712D01*
X0017442Y0064561D01*
X0017391Y0064412D01*
X0017336Y0064264D01*
X0017278Y0064117D01*
X0017216Y0063972D01*
X0017150Y0063829D01*
X0017081Y0063687D01*
X0017009Y0063547D01*
X0016932Y0063409D01*
X0016853Y0063273D01*
X0016769Y0063139D01*
X0016683Y0063007D01*
X0016593Y0062878D01*
X0016500Y0062750D01*
X0016404Y0062625D01*
X0016305Y0062503D01*
X0016202Y0062383D01*
X0016097Y0062265D01*
X0015989Y0062151D01*
X0015877Y0062039D01*
X0015763Y0061930D01*
X0015647Y0061824D01*
X0015527Y0061721D01*
X0015406Y0061621D01*
X0015281Y0061524D01*
X0015154Y0061430D01*
X0015025Y0061339D01*
X0014894Y0061252D01*
X0014761Y0061168D01*
X0014625Y0061087D01*
X0014487Y0061010D01*
X0014348Y0060937D01*
X0014207Y0060867D01*
X0014064Y0060800D01*
X0013919Y0060737D01*
X0013773Y0060678D01*
X0013625Y0060622D01*
X0013476Y0060571D01*
X0013326Y0060523D01*
X0013175Y0060479D01*
X0013022Y0060438D01*
X0012869Y0060402D01*
X0012714Y0060369D01*
X0012559Y0060340D01*
X0012404Y0060316D01*
X0012247Y0060295D01*
X0012091Y0060278D01*
X0011933Y0060265D01*
X0011776Y0060256D01*
X0011618Y0060251D01*
X0011461Y0060250D01*
X0011303Y0060253D01*
X0011145Y0060260D01*
X0010988Y0060271D01*
X0010831Y0060286D01*
X0010674Y0060305D01*
X0010518Y0060328D01*
X0010363Y0060354D01*
X0010208Y0060385D01*
X0010054Y0060419D01*
X0009901Y0060458D01*
X0009749Y0060500D01*
X0009599Y0060546D01*
X0009449Y0060596D01*
X0009301Y0060650D01*
X0009154Y0060707D01*
X0009008Y0060768D01*
X0008865Y0060833D01*
X0008722Y0060901D01*
X0008582Y0060973D01*
X0008444Y0061048D01*
X0008307Y0061127D01*
X0008172Y0061209D01*
X0008040Y0061295D01*
X0007910Y0061384D01*
X0007782Y0061476D01*
X0007656Y0061572D01*
X0007533Y0061670D01*
X0007413Y0061772D01*
X0007295Y0061877D01*
X0007179Y0061984D01*
X0007067Y0062095D01*
X0006957Y0062208D01*
X0006850Y0062324D01*
X0006746Y0062442D01*
X0006645Y0062564D01*
X0006548Y0062687D01*
X0006453Y0062814D01*
X0006362Y0062942D01*
X0006273Y0063073D01*
X0006189Y0063206D01*
X0006107Y0063341D01*
X0006029Y0063478D01*
X0005955Y0063617D01*
X0005884Y0063758D01*
X0005816Y0063900D01*
X0005753Y0064045D01*
X0005692Y0064190D01*
X0005636Y0064338D01*
X0005583Y0064486D01*
X0005534Y0064636D01*
X0005489Y0064787D01*
X0005448Y0064940D01*
X0005410Y0065093D01*
X0005377Y0065247D01*
X0005347Y0065402D01*
X0005321Y0065557D01*
X0005300Y0065714D01*
X0005282Y0065870D01*
X0005268Y0066027D01*
X0005258Y0066185D01*
X0005252Y0066342D01*
X0005250Y0066500D01*
D11*
X0013296Y0050872D02*
X0017700Y0050872D01*
X0017700Y0049404D02*
X0017700Y0052340D01*
X0014764Y0049404D02*
X0013296Y0050872D01*
X0014764Y0047736D02*
X0017700Y0046268D01*
X0014764Y0044800D01*
X0010434Y0044131D02*
X0010434Y0047067D01*
X0009700Y0042463D02*
X0007498Y0042463D01*
X0006764Y0041729D01*
X0006764Y0040261D01*
X0007498Y0039527D01*
X0006764Y0037859D02*
X0006764Y0035658D01*
X0007498Y0034924D01*
X0008966Y0034924D01*
X0009700Y0035658D01*
X0009700Y0037859D01*
X0009700Y0039527D02*
X0005296Y0039527D01*
X0006764Y0033255D02*
X0009700Y0033255D01*
X0009700Y0031054D01*
X0008966Y0030320D01*
X0006764Y0030320D01*
X0007498Y0028652D02*
X0006764Y0027918D01*
X0006764Y0026450D01*
X0007498Y0025716D01*
X0008966Y0025716D01*
X0009700Y0026450D01*
X0009700Y0027918D01*
X0008966Y0028652D01*
X0007498Y0028652D01*
X0005296Y0024048D02*
X0005296Y0021112D01*
X0005296Y0022580D02*
X0009700Y0022580D01*
X0007498Y0019444D02*
X0007498Y0016508D01*
X0006764Y0014840D02*
X0006030Y0014840D01*
X0005296Y0014106D01*
X0005296Y0012638D01*
X0006030Y0011904D01*
X0005296Y0010236D02*
X0005296Y0007300D01*
X0009700Y0007300D01*
X0009700Y0010236D01*
X0008966Y0011904D02*
X0009700Y0012638D01*
X0009700Y0014106D01*
X0008966Y0014840D01*
X0008232Y0014840D01*
X0007498Y0014106D01*
X0007498Y0013372D01*
X0007498Y0014106D02*
X0006764Y0014840D01*
X0007498Y0008768D02*
X0007498Y0007300D01*
X0012796Y0008034D02*
X0013530Y0007300D01*
X0014264Y0007300D01*
X0014998Y0008034D01*
X0014998Y0009502D01*
X0015732Y0010236D01*
X0016466Y0010236D01*
X0017200Y0009502D01*
X0017200Y0008034D01*
X0016466Y0007300D01*
X0013530Y0010236D02*
X0012796Y0009502D01*
X0012796Y0008034D01*
X0014998Y0011904D02*
X0014264Y0012638D01*
X0014264Y0014106D01*
X0014998Y0014840D01*
X0015732Y0014840D01*
X0015732Y0011904D01*
X0016466Y0011904D02*
X0014998Y0011904D01*
X0016466Y0011904D02*
X0017200Y0012638D01*
X0017200Y0014106D01*
X0017200Y0016508D02*
X0014264Y0016508D01*
X0014264Y0018710D01*
X0014998Y0019444D01*
X0017200Y0019444D01*
X0017200Y0021112D02*
X0017200Y0023314D01*
X0016466Y0024048D01*
X0015732Y0023314D01*
X0015732Y0021846D01*
X0014998Y0021112D01*
X0014264Y0021846D01*
X0014264Y0024048D01*
X0014998Y0025716D02*
X0016466Y0025716D01*
X0017200Y0026450D01*
X0017200Y0027918D01*
X0016466Y0028652D01*
X0014998Y0028652D01*
X0014264Y0027918D01*
X0014264Y0026450D01*
X0014998Y0025716D01*
X0014264Y0030320D02*
X0017200Y0030320D01*
X0015732Y0030320D02*
X0014264Y0031788D01*
X0014264Y0032521D01*
D12*
X0024189Y0041689D02*
X0047811Y0041689D01*
X0047811Y0065311D01*
X0024189Y0065311D01*
X0024189Y0041689D01*
X0029110Y0053500D02*
X0029112Y0053669D01*
X0029118Y0053838D01*
X0029129Y0054007D01*
X0029143Y0054175D01*
X0029162Y0054343D01*
X0029185Y0054511D01*
X0029211Y0054678D01*
X0029242Y0054844D01*
X0029277Y0055010D01*
X0029316Y0055174D01*
X0029360Y0055338D01*
X0029407Y0055500D01*
X0029458Y0055661D01*
X0029513Y0055821D01*
X0029572Y0055980D01*
X0029634Y0056137D01*
X0029701Y0056292D01*
X0029772Y0056446D01*
X0029846Y0056598D01*
X0029924Y0056748D01*
X0030005Y0056896D01*
X0030090Y0057042D01*
X0030179Y0057186D01*
X0030271Y0057328D01*
X0030367Y0057467D01*
X0030466Y0057604D01*
X0030568Y0057739D01*
X0030674Y0057871D01*
X0030783Y0058000D01*
X0030895Y0058127D01*
X0031010Y0058251D01*
X0031128Y0058372D01*
X0031249Y0058490D01*
X0031373Y0058605D01*
X0031500Y0058717D01*
X0031629Y0058826D01*
X0031761Y0058932D01*
X0031896Y0059034D01*
X0032033Y0059133D01*
X0032172Y0059229D01*
X0032314Y0059321D01*
X0032458Y0059410D01*
X0032604Y0059495D01*
X0032752Y0059576D01*
X0032902Y0059654D01*
X0033054Y0059728D01*
X0033208Y0059799D01*
X0033363Y0059866D01*
X0033520Y0059928D01*
X0033679Y0059987D01*
X0033839Y0060042D01*
X0034000Y0060093D01*
X0034162Y0060140D01*
X0034326Y0060184D01*
X0034490Y0060223D01*
X0034656Y0060258D01*
X0034822Y0060289D01*
X0034989Y0060315D01*
X0035157Y0060338D01*
X0035325Y0060357D01*
X0035493Y0060371D01*
X0035662Y0060382D01*
X0035831Y0060388D01*
X0036000Y0060390D01*
X0036169Y0060388D01*
X0036338Y0060382D01*
X0036507Y0060371D01*
X0036675Y0060357D01*
X0036843Y0060338D01*
X0037011Y0060315D01*
X0037178Y0060289D01*
X0037344Y0060258D01*
X0037510Y0060223D01*
X0037674Y0060184D01*
X0037838Y0060140D01*
X0038000Y0060093D01*
X0038161Y0060042D01*
X0038321Y0059987D01*
X0038480Y0059928D01*
X0038637Y0059866D01*
X0038792Y0059799D01*
X0038946Y0059728D01*
X0039098Y0059654D01*
X0039248Y0059576D01*
X0039396Y0059495D01*
X0039542Y0059410D01*
X0039686Y0059321D01*
X0039828Y0059229D01*
X0039967Y0059133D01*
X0040104Y0059034D01*
X0040239Y0058932D01*
X0040371Y0058826D01*
X0040500Y0058717D01*
X0040627Y0058605D01*
X0040751Y0058490D01*
X0040872Y0058372D01*
X0040990Y0058251D01*
X0041105Y0058127D01*
X0041217Y0058000D01*
X0041326Y0057871D01*
X0041432Y0057739D01*
X0041534Y0057604D01*
X0041633Y0057467D01*
X0041729Y0057328D01*
X0041821Y0057186D01*
X0041910Y0057042D01*
X0041995Y0056896D01*
X0042076Y0056748D01*
X0042154Y0056598D01*
X0042228Y0056446D01*
X0042299Y0056292D01*
X0042366Y0056137D01*
X0042428Y0055980D01*
X0042487Y0055821D01*
X0042542Y0055661D01*
X0042593Y0055500D01*
X0042640Y0055338D01*
X0042684Y0055174D01*
X0042723Y0055010D01*
X0042758Y0054844D01*
X0042789Y0054678D01*
X0042815Y0054511D01*
X0042838Y0054343D01*
X0042857Y0054175D01*
X0042871Y0054007D01*
X0042882Y0053838D01*
X0042888Y0053669D01*
X0042890Y0053500D01*
X0042888Y0053331D01*
X0042882Y0053162D01*
X0042871Y0052993D01*
X0042857Y0052825D01*
X0042838Y0052657D01*
X0042815Y0052489D01*
X0042789Y0052322D01*
X0042758Y0052156D01*
X0042723Y0051990D01*
X0042684Y0051826D01*
X0042640Y0051662D01*
X0042593Y0051500D01*
X0042542Y0051339D01*
X0042487Y0051179D01*
X0042428Y0051020D01*
X0042366Y0050863D01*
X0042299Y0050708D01*
X0042228Y0050554D01*
X0042154Y0050402D01*
X0042076Y0050252D01*
X0041995Y0050104D01*
X0041910Y0049958D01*
X0041821Y0049814D01*
X0041729Y0049672D01*
X0041633Y0049533D01*
X0041534Y0049396D01*
X0041432Y0049261D01*
X0041326Y0049129D01*
X0041217Y0049000D01*
X0041105Y0048873D01*
X0040990Y0048749D01*
X0040872Y0048628D01*
X0040751Y0048510D01*
X0040627Y0048395D01*
X0040500Y0048283D01*
X0040371Y0048174D01*
X0040239Y0048068D01*
X0040104Y0047966D01*
X0039967Y0047867D01*
X0039828Y0047771D01*
X0039686Y0047679D01*
X0039542Y0047590D01*
X0039396Y0047505D01*
X0039248Y0047424D01*
X0039098Y0047346D01*
X0038946Y0047272D01*
X0038792Y0047201D01*
X0038637Y0047134D01*
X0038480Y0047072D01*
X0038321Y0047013D01*
X0038161Y0046958D01*
X0038000Y0046907D01*
X0037838Y0046860D01*
X0037674Y0046816D01*
X0037510Y0046777D01*
X0037344Y0046742D01*
X0037178Y0046711D01*
X0037011Y0046685D01*
X0036843Y0046662D01*
X0036675Y0046643D01*
X0036507Y0046629D01*
X0036338Y0046618D01*
X0036169Y0046612D01*
X0036000Y0046610D01*
X0035831Y0046612D01*
X0035662Y0046618D01*
X0035493Y0046629D01*
X0035325Y0046643D01*
X0035157Y0046662D01*
X0034989Y0046685D01*
X0034822Y0046711D01*
X0034656Y0046742D01*
X0034490Y0046777D01*
X0034326Y0046816D01*
X0034162Y0046860D01*
X0034000Y0046907D01*
X0033839Y0046958D01*
X0033679Y0047013D01*
X0033520Y0047072D01*
X0033363Y0047134D01*
X0033208Y0047201D01*
X0033054Y0047272D01*
X0032902Y0047346D01*
X0032752Y0047424D01*
X0032604Y0047505D01*
X0032458Y0047590D01*
X0032314Y0047679D01*
X0032172Y0047771D01*
X0032033Y0047867D01*
X0031896Y0047966D01*
X0031761Y0048068D01*
X0031629Y0048174D01*
X0031500Y0048283D01*
X0031373Y0048395D01*
X0031249Y0048510D01*
X0031128Y0048628D01*
X0031010Y0048749D01*
X0030895Y0048873D01*
X0030783Y0049000D01*
X0030674Y0049129D01*
X0030568Y0049261D01*
X0030466Y0049396D01*
X0030367Y0049533D01*
X0030271Y0049672D01*
X0030179Y0049814D01*
X0030090Y0049958D01*
X0030005Y0050104D01*
X0029924Y0050252D01*
X0029846Y0050402D01*
X0029772Y0050554D01*
X0029701Y0050708D01*
X0029634Y0050863D01*
X0029572Y0051020D01*
X0029513Y0051179D01*
X0029458Y0051339D01*
X0029407Y0051500D01*
X0029360Y0051662D01*
X0029316Y0051826D01*
X0029277Y0051990D01*
X0029242Y0052156D01*
X0029211Y0052322D01*
X0029185Y0052489D01*
X0029162Y0052657D01*
X0029143Y0052825D01*
X0029129Y0052993D01*
X0029118Y0053162D01*
X0029112Y0053331D01*
X0029110Y0053500D01*
M02*
